<svg width="64" height="68" viewBox="0 0 64 68" fill="none" xmlns="http://www.w3.org/2000/svg">
<path fill-rule="evenodd" clip-rule="evenodd" d="M0.869507 67.9989C1.37243 68.1181 22.7825 58.2084 33.8659 60.7788L38.943 34.3308H20.1769C20.3637 34.2116 20.7804 34.1401 21.0103 34.0781C47.622 27.5162 35.9015 1.68334 32.4146 0.753418L0.869507 67.9941V67.9989Z" fill="#7C3996"/>
<path fill-rule="evenodd" clip-rule="evenodd" d="M33.0948 66.0054C33.4252 65.767 35.8536 61.413 36.2367 60.6262C41.5149 60.9743 46.3045 61.5227 51.4533 62.7912C54.5761 63.5638 58.1635 64.8466 60.908 66.3726L63.2453 67.8367C63.7626 68.1991 63.9685 67.8987 63.8249 67.3598C58.9586 56.8445 54.0205 46.4484 49.1208 35.9522C48.9148 35.5659 48.9388 35.3179 49.116 34.9698L51.5874 30.1342L50.9073 28.6702L33.09 66.0007L33.0948 66.0054Z" fill="#33449C"/>
<path fill-rule="evenodd" clip-rule="evenodd" d="M32.8696 0.0905762C42.559 7.46321 47.8802 15.3604 41.9938 27.1395C41.8501 27.4304 41.5963 27.7594 41.5723 28.0741H43.1146C46.9654 22.6424 46.6733 14.7309 42.9709 9.07984C40.9162 6.42837 36.0451 0.829747 32.8696 0.095345V0.0905762Z" fill="#7C3996"/>
<path fill-rule="evenodd" clip-rule="evenodd" d="M32.8697 0.090608V0L32.7643 0.0763015L32.8697 0.090608Z" fill="#010101"/>
</svg>
