<svg width="142" height="40" viewBox="0 0 142 40" fill="none" xmlns="http://www.w3.org/2000/svg">
<path fill-rule="evenodd" clip-rule="evenodd" d="M105.102 40.0001C105.396 40.0703 117.936 34.241 124.427 35.753L127.4 20.1951H116.41C116.519 20.125 116.763 20.0829 116.898 20.0464C132.484 16.1864 125.619 0.990382 123.577 0.443359L105.102 39.9973V40.0001Z" fill="#7C3996"/>
<path fill-rule="evenodd" clip-rule="evenodd" d="M123.975 38.827C124.169 38.6868 125.591 36.1256 125.815 35.6627C128.907 35.8675 131.712 36.1901 134.728 36.9363C136.557 37.3907 138.658 38.1453 140.265 39.043L141.634 39.9042C141.937 40.1174 142.058 39.9407 141.974 39.6237C139.123 33.4381 136.231 27.3227 133.361 21.1484C133.241 20.9211 133.255 20.7753 133.359 20.5705L134.806 17.726L134.408 16.8647L123.972 38.8242L123.975 38.827Z" fill="#33449C"/>
<path fill-rule="evenodd" clip-rule="evenodd" d="M123.844 0.0532227C129.519 4.39013 132.635 9.03562 129.187 15.9646C129.103 16.1357 128.955 16.3293 128.941 16.5144H129.844C132.099 13.3192 131.928 8.66533 129.76 5.34111C128.556 3.78139 125.703 0.488036 123.844 0.0560279V0.0532227Z" fill="#7C3996"/>
<path fill-rule="evenodd" clip-rule="evenodd" d="M123.843 0.0532997V0L123.782 0.0448839L123.843 0.0532997Z" fill="#010101"/>
<path d="M9.11719 22.0381V23.5894H12.1244V22.0381H9.11719Z" fill="#7C3996"/>
<path d="M13.2522 18.3493C13.2522 18.7785 13.1596 19.1853 12.9772 19.564C12.7921 19.9455 12.5172 20.2513 12.1497 20.4869C11.7794 20.7226 11.325 20.8404 10.7863 20.8404H9.43422C9.05832 20.8404 8.71608 20.7619 8.41031 20.6048C8.10734 20.4477 7.77632 20.1924 7.42566 19.8417C7.22088 20.1531 6.94877 20.4 6.60653 20.5767C6.2671 20.7506 5.86595 20.8404 5.40308 20.8404H2.83067C1.97507 20.8404 1.32706 20.5823 0.87822 20.069C0.432186 19.5584 0.210571 18.8964 0.210571 18.0913V12.8483H2.07886V18.0913C2.07886 18.3017 2.09289 18.4475 2.11814 18.5317C2.14619 18.613 2.20791 18.6663 2.30609 18.6888C2.40427 18.714 2.5782 18.7252 2.83067 18.7252H5.46199C5.5714 18.7252 5.66116 18.7 5.72568 18.6495C5.79301 18.599 5.82667 18.5289 5.82667 18.4419C5.82667 18.3325 5.77618 18.2231 5.67238 18.1137L3.72274 15.8583L4.13511 13.5299L8.01196 11.8271L8.76377 13.7544L5.75654 15.0812L7.0722 16.7027L7.2826 16.9607C7.66691 17.432 7.96147 17.7799 8.16344 18.0015C8.36823 18.2259 8.57301 18.4026 8.7806 18.5317C8.98818 18.6607 9.207 18.7252 9.43422 18.7252H10.5844C11.1482 18.7252 11.4119 18.5317 11.3726 18.1502C11.3334 17.7013 11.2436 17.0926 11.1033 16.3155L12.8538 15.8807C13.1203 16.9944 13.2522 17.8163 13.2522 18.3493Z" fill="#7C3996"/>
<path d="M14.6631 12.8506H16.5314V20.8399H14.6631V12.8506Z" fill="#7C3996"/>
<path d="M20.3829 16.6909V20.0039C20.3829 21.1877 20.0744 22.1163 19.4544 22.7895C18.8344 23.4628 17.9508 23.7994 16.7978 23.7994H16.0573V21.6843H16.7978C17.2691 21.6843 17.6226 21.6394 17.861 21.5496C18.0995 21.4598 18.2678 21.2971 18.3604 21.0615C18.4529 20.8259 18.5006 20.4752 18.5006 20.0039V16.6909H20.3801H20.3829Z" fill="#7C3996"/>
<path d="M32.4175 12.1665V13.4261H33.8987V12.1665H32.4175ZM31.6321 13.8609V15.4122H34.6617V13.8609H31.6321Z" fill="#7C3996"/>
<path d="M39.9862 12.4609V14.2226H41.8068V12.4609H39.9862Z" fill="#7C3996"/>
<path d="M47.117 23.6116V24.8712H48.5982V23.6116H47.117ZM46.3315 21.6255V23.1768H49.3612V21.6255H46.3315Z" fill="#7C3996"/>
<path d="M50.1159 18.3495C50.1159 18.7787 50.0233 19.1855 49.8382 19.5642C49.653 19.9457 49.3781 20.2514 49.0106 20.4871C48.6403 20.7227 48.1887 20.8405 47.6473 20.8405H46.2951C45.7705 20.8405 45.3329 20.7396 44.9795 20.5404C44.626 20.3412 44.3343 20.0523 44.0986 19.6764C43.3777 20.0523 42.6567 20.3412 41.9358 20.5404C41.2148 20.7396 40.449 20.8405 39.6327 20.8405H37.5652C37.1809 20.8405 36.8471 20.7788 36.5665 20.6582C36.2832 20.5376 36.0896 20.3889 35.9774 20.2178C35.8624 20.3749 35.6548 20.5179 35.3631 20.647C35.0685 20.776 34.788 20.8405 34.5215 20.8405C33.9268 20.8405 33.4359 20.633 33.0516 20.2178C32.8804 20.3889 32.656 20.5376 32.3783 20.6582C32.0978 20.7788 31.8032 20.8405 31.489 20.8405C31.3095 20.8405 31.1412 20.8153 30.9841 20.7704C30.914 21.7018 30.5998 22.4395 30.0387 22.9838C29.4777 23.528 28.6417 23.8001 27.5308 23.8001H26.6949C25.9515 23.8001 25.3119 23.6486 24.7817 23.3428C24.2487 23.0371 23.8419 22.6135 23.5642 22.0692C23.2865 21.5222 23.1462 20.9079 23.1462 20.2178C23.1462 19.7718 23.2332 19.2584 23.4043 18.6833C23.5782 18.1082 23.7774 17.5837 24.0046 17.1152L25.5672 17.9371C25.1744 18.7843 24.9809 19.5445 24.9809 20.2178C24.9809 20.5853 25.0314 20.8742 25.1324 21.0874C25.2333 21.2978 25.4101 21.4521 25.6569 21.5447C25.9038 21.64 26.2488 21.6849 26.6949 21.6849H27.5308C28.0161 21.6849 28.3668 21.6541 28.5828 21.5924C28.796 21.5306 28.9391 21.41 29.0092 21.2333C29.0821 21.0566 29.1158 20.7732 29.1158 20.3805V16.6916H30.9953V18.184C30.9953 18.3579 31.0486 18.4898 31.1552 18.5851C31.2618 18.6777 31.3965 18.7254 31.5592 18.7254C31.7219 18.7254 31.8509 18.6749 31.9603 18.5767C32.0697 18.4813 32.123 18.3495 32.123 18.184L32.1118 16.6916H33.9941L33.9801 18.184C33.9801 18.3579 34.0278 18.4869 34.1232 18.5767C34.2157 18.6693 34.3364 18.717 34.485 18.7254C34.6337 18.717 34.7572 18.6693 34.8497 18.5767C34.9451 18.4869 34.9928 18.3579 34.9928 18.184V16.6916H36.8723V18.2204C36.8723 18.4 36.92 18.529 37.0126 18.6076C37.1079 18.6861 37.2566 18.7254 37.4586 18.7254H39.6327C41.0128 18.7254 42.292 18.4617 43.4759 17.9371C41.9021 17.4686 41.0185 17.233 40.8305 17.233C40.5893 17.233 40.3957 17.4125 40.2554 17.7744L38.6564 17.2667C38.8388 16.6187 39.1165 16.1053 39.4924 15.735C39.8683 15.3619 40.3143 15.1768 40.8305 15.1768C41.4421 15.1768 42.8952 15.6508 45.1899 16.599L45.3778 18.5851C45.7004 18.6777 45.9809 18.7254 46.225 18.7254H47.4481C48.0119 18.7254 48.2728 18.5318 48.2336 18.1503C48.1943 17.7015 48.1045 17.0927 47.9642 16.3157L49.7147 15.8809C49.9812 16.9946 50.1159 17.8165 50.1159 18.3495Z" fill="#7C3996"/>
<path d="M55.7656 22.0381V23.5894H58.7757V22.0381H55.7656Z" fill="#7C3996"/>
<path d="M59.9034 18.3492C59.9034 18.7784 59.8108 19.1852 59.6257 19.5639C59.4433 19.9454 59.1656 20.2512 58.7981 20.4868C58.4306 20.7225 57.9762 20.8403 57.4348 20.8403H55.6731C54.8175 20.8403 54.1695 20.5822 53.7234 20.0688C53.2746 19.5583 53.053 18.8963 53.053 18.0911V12.8481H54.9213V18.0911C54.9213 18.3015 54.9353 18.4474 54.9605 18.5316C54.9886 18.6129 55.0503 18.6662 55.1485 18.6887C55.2467 18.7139 55.4206 18.7251 55.6731 18.7251H57.2356C57.7995 18.7251 58.0631 18.5316 58.0239 18.1501C57.9846 17.7012 57.8948 17.0925 57.7518 16.3154L59.5022 15.8806C59.7687 16.9943 59.9034 17.8162 59.9034 18.3492Z" fill="#7C3996"/>
<path d="M63.9905 16.6909V20.0039C63.9905 21.1877 63.6819 22.1163 63.0619 22.7895C62.442 23.4628 61.5583 23.7994 60.4054 23.7994H59.6648V21.6843H60.4054C60.8739 21.6843 61.2301 21.6394 61.4686 21.5496C61.707 21.4598 61.8753 21.2971 61.9679 21.0615C62.0605 20.8259 62.1082 20.4752 62.1082 20.0039V16.6909H63.9877H63.9905Z" fill="#7C3996"/>
<path d="M64.2544 12.5622C64.5573 12.3322 64.9977 12.2144 65.5756 12.2144H68.0667V13.6114H65.5756C65.3316 13.6114 65.1492 13.6534 65.0286 13.7348C64.908 13.8162 64.8042 13.9592 64.7172 14.164L63.4829 13.7516C63.6933 13.1878 63.9514 12.7894 64.2515 12.5594L64.2544 12.5622ZM65.225 14.366H67.0933V20.8405H65.225V14.366Z" fill="#7C3996"/>
<path d="M73.8033 14.7891V16.3404H76.8106V14.7891H73.8033Z" fill="#7C3996"/>
<path d="M85.7481 17.5667C85.8772 17.8781 85.9417 18.1951 85.9417 18.5261C85.9417 18.9328 85.8435 19.3115 85.6472 19.665C85.4536 20.0185 85.1675 20.3018 84.7972 20.5178C84.4241 20.731 83.9921 20.8404 83.4983 20.8404H80.7015C80.4574 20.8404 80.2078 20.7983 79.9497 20.717C79.6916 20.6328 79.4532 20.5122 79.2316 20.3467C78.8809 20.6749 78.3563 20.8404 77.6578 20.8404H72.5242C71.9912 20.8404 71.5312 20.7226 71.1496 20.4869C70.7653 20.2513 70.4736 19.9399 70.2716 19.5472C70.0724 19.1545 69.9742 18.7281 69.9742 18.2652C69.9742 18.0239 69.9995 17.7939 70.0556 17.5723C70.2043 16.8598 70.3053 16.4025 70.3614 16.1977L72.0754 16.6213L71.994 16.9972C71.9015 17.39 71.8369 17.6985 71.8061 17.9258L71.7948 18.0548C71.7948 18.2596 71.8566 18.4223 71.9828 18.5429C72.109 18.6635 72.2886 18.7252 72.5242 18.7252H77.6578C77.9327 18.7252 78.1151 18.7056 78.2048 18.6663C78.2946 18.6271 78.3395 18.5457 78.3395 18.4195V16.6914H80.219V18.4195C80.219 18.5457 80.2555 18.6271 80.3312 18.6663C80.4069 18.7056 80.5304 18.7252 80.7015 18.7252H83.5572C83.6666 18.7252 83.7536 18.6972 83.8209 18.6439C83.8883 18.5878 83.9219 18.5177 83.9219 18.4307C83.9219 18.3213 83.8686 18.2147 83.7676 18.1137L81.5347 15.8583L81.947 13.5299L85.8239 11.8271L86.5757 13.7544L83.5685 15.0812L85.1675 16.7027C85.4255 16.9692 85.6191 17.2581 85.7481 17.5667Z" fill="#7C3996"/>
<path d="M94.6968 12.1553V13.412H96.178V12.1553H94.6968ZM93.9086 13.8468V15.3981H96.941V13.8468H93.9086Z" fill="#7C3996"/>
<path d="M99.2919 18.3495C99.2919 19.0536 99.0955 19.6455 98.7028 20.1224C98.3129 20.6021 97.6929 20.8405 96.8457 20.8405C96.251 20.8405 95.7629 20.6329 95.3786 20.2178C95.2046 20.3889 94.9802 20.5376 94.7025 20.6582C94.4248 20.7788 94.1218 20.8405 93.7908 20.8405C93.5187 20.8405 93.227 20.776 92.9156 20.647C92.607 20.5179 92.3966 20.3749 92.2872 20.2178C92.1778 20.3889 91.9814 20.5376 91.7009 20.6582C91.4176 20.7788 91.0865 20.8405 90.7022 20.8405H89.6783C89.4819 20.8405 89.308 20.7957 89.1509 20.7115C89.0331 21.6821 88.6712 22.4395 88.0625 22.9837C87.4566 23.528 86.6402 23.8001 85.6135 23.8001H84.8729V21.6849H85.6135C86.082 21.6849 86.4383 21.64 86.6767 21.5503C86.9152 21.4605 87.0835 21.2978 87.176 21.0621C87.2686 20.8293 87.3163 20.4759 87.3163 20.0046V16.6916H89.1986V18.4196C89.1986 18.5458 89.2351 18.6272 89.308 18.6665C89.3838 18.7057 89.5072 18.7254 89.6783 18.7254H90.806C91.0108 18.7254 91.1595 18.6861 91.2549 18.6076C91.3474 18.529 91.3951 18.4 91.3951 18.2204V16.6916H93.2746V18.184C93.2746 18.3579 93.3336 18.4897 93.4514 18.5851C93.5692 18.6777 93.7066 18.7254 93.8609 18.7254C94.0152 18.7254 94.1555 18.6749 94.2733 18.5767C94.3911 18.4813 94.45 18.3495 94.45 18.184L94.4388 16.6916H96.3183L96.3071 18.184C96.3071 18.3579 96.3576 18.4897 96.4586 18.5851C96.5624 18.6777 96.6914 18.7254 96.8457 18.7254C97.0196 18.7254 97.1711 18.6721 97.3058 18.5655C97.4376 18.4617 97.4881 18.3102 97.4573 18.1138L97.1403 16.3157L98.8907 15.8809C99.1572 16.9945 99.2919 17.8165 99.2919 18.3495Z" fill="#7C3996"/>
<path d="M6.32593 38.73V39.4088H7.0048V38.73H6.32593ZM7.58268 38.73V39.4088H8.25874V38.73H7.58268Z" fill="#4C4C4E"/>
<path d="M10.5396 33.332V34.0081H11.2156V33.332H10.5396Z" fill="#4C4C4E"/>
<path d="M11.6785 36.488C11.6785 36.6816 11.6364 36.8639 11.5494 37.0378C11.4625 37.2146 11.3306 37.3576 11.1511 37.467C10.9716 37.5793 10.7499 37.6354 10.4862 37.6354H9.35292C9.19583 37.6354 9.02752 37.5961 8.84798 37.5147C8.66845 37.4334 8.51977 37.31 8.40195 37.1501C8.29254 37.31 8.14106 37.4334 7.95311 37.5147C7.76796 37.5961 7.56598 37.6354 7.35278 37.6354H6.51121C6.19983 37.6354 5.93614 37.5652 5.71452 37.4222C5.49571 37.2819 5.24324 37.035 4.95991 36.6844C4.90942 36.9593 4.77757 37.1865 4.56718 37.3661C4.35678 37.5456 4.09028 37.6354 3.76488 37.6354H1.27943C1.01573 37.6354 0.782899 37.5736 0.580921 37.4502C0.376139 37.324 0.224655 37.1613 0.123666 36.9565C0.0226776 36.7489 -0.0165959 36.5245 0.00865136 36.2832C0.0254828 36.0897 0.106835 35.6829 0.252708 35.0573L0.701547 35.1724C0.690326 35.2172 0.651053 35.3912 0.583727 35.6941C0.516401 35.9943 0.477127 36.2075 0.465906 36.3281C0.460296 36.3534 0.457491 36.3898 0.457491 36.4347C0.457491 36.6367 0.530427 36.7994 0.6763 36.92C0.819367 37.0435 1.02135 37.1024 1.27943 37.1024H3.75646C4.01174 37.1024 4.2081 37.0491 4.35117 36.9369C4.49143 36.8246 4.56437 36.6788 4.56437 36.4964C4.56437 36.2973 4.48021 36.0981 4.3119 35.8961L2.9738 34.2298L3.11967 33.607L5.82673 32.4204L6.01468 32.9057L3.47594 34.025L4.64853 35.523L4.67658 35.5595C5.02724 36.0223 5.28812 36.3506 5.46205 36.5497C5.63317 36.7461 5.79868 36.8892 5.95577 36.9733C6.11287 37.0603 6.29801 37.1024 6.51121 37.1024H7.35278C7.91103 37.1024 8.18875 36.8695 8.18875 36.4039V35.3323H8.66003V36.4656C8.66003 36.8892 8.89286 37.1024 9.35292 37.1024H10.4862C10.7387 37.1024 10.9239 37.0463 11.0361 36.9312C11.1511 36.819 11.2072 36.6704 11.2072 36.488C11.2072 36.345 11.1848 36.1346 11.1371 35.854C11.0866 35.5707 11.0333 35.307 10.9716 35.0573L11.4288 34.9367C11.4905 35.2004 11.5466 35.4809 11.5999 35.7811C11.6532 36.0813 11.6785 36.3169 11.6785 36.488Z" fill="#4C4C4E"/>
<path d="M14.1443 38.878C14.3491 38.7854 14.495 38.6452 14.5763 38.4628C14.6605 38.2805 14.7026 38.042 14.7026 37.7475V37.6269H13.8049C13.3981 37.6269 13.0699 37.509 12.8202 37.2734C12.5706 37.0378 12.4443 36.6983 12.4443 36.2579C12.4443 35.9549 12.5004 35.68 12.6155 35.4332C12.7305 35.1863 12.8904 34.9927 13.098 34.8469C13.3055 34.7038 13.5384 34.6309 13.7965 34.6309C14.2116 34.6309 14.5455 34.7823 14.7951 35.0825C15.0448 35.3855 15.171 35.7754 15.171 36.2579V37.7475C15.171 38.3113 15.0224 38.7518 14.725 39.0716C14.4276 39.3914 13.9508 39.5513 13.2915 39.5513H12.5397V39.0183H13.2915C13.6506 39.0183 13.9339 38.9706 14.1387 38.878H14.1443ZM13.1372 36.9003C13.2831 37.0293 13.5075 37.0939 13.8049 37.0939H14.7026V36.2579C14.7026 35.9129 14.624 35.6436 14.4697 35.4528C14.3154 35.2592 14.091 35.1639 13.7965 35.1639C13.5216 35.1639 13.3084 35.262 13.1513 35.4612C12.9942 35.6604 12.9156 35.9241 12.9156 36.2607C12.9156 36.5609 12.9886 36.7741 13.1372 36.9031V36.9003Z" fill="#4C4C4E"/>
<path d="M20.3157 33.8262V34.505H20.9918V33.8262H20.3157ZM19.0618 33.8262V34.505H19.7378V33.8262H19.0618Z" fill="#4C4C4E"/>
<path d="M27.3766 32.7009V36.4039C27.3766 36.6928 27.3121 36.9312 27.183 37.1136C27.054 37.2987 26.8997 37.4334 26.7202 37.5147C26.5406 37.5961 26.3723 37.6354 26.2152 37.6354H25.873C25.57 37.6354 25.3063 37.5652 25.0819 37.4222C24.8603 37.2819 24.6078 37.0378 24.3301 36.6928C24.2796 36.9677 24.1478 37.1921 23.9374 37.3689C23.727 37.5484 23.4605 37.6354 23.1351 37.6354H21.4716C21.3145 37.6354 21.1462 37.5961 20.9666 37.5147C20.7843 37.4334 20.6384 37.31 20.5206 37.1501C20.4084 37.31 20.2597 37.4334 20.0717 37.5147C19.8838 37.5961 19.6846 37.6354 19.4714 37.6354H18.6747C18.5457 37.6354 18.4223 37.6129 18.3016 37.568C18.1782 37.5232 18.0716 37.4502 17.9818 37.3548V37.5147C17.9818 38.1768 17.8135 38.6845 17.4797 39.0296C17.1459 39.3774 16.6634 39.5513 16.035 39.5513H15.5553V39.0183H16.035C16.5512 39.0183 16.9271 38.9005 17.1599 38.6649C17.3927 38.4292 17.5106 38.0477 17.5106 37.5147V35.3323H17.9818V36.4656C17.9818 36.8892 18.2119 37.1024 18.6747 37.1024H19.4714C20.0297 37.1024 20.3074 36.8695 20.3074 36.4039V35.3323H20.7787V36.4656C20.7787 36.8892 21.0087 37.1024 21.4716 37.1024H23.121C23.3735 37.1024 23.5727 37.0491 23.713 36.9369C23.856 36.8246 23.9262 36.6816 23.9262 36.502C23.9262 36.3001 23.842 36.0981 23.6765 35.8961L22.3384 34.2298L22.4815 33.607L25.1885 32.4204L25.3849 32.9057L22.8405 34.025L24.0187 35.523L24.0552 35.5679C24.4002 36.0252 24.6583 36.3506 24.8266 36.5497C24.9978 36.7461 25.1605 36.8892 25.3176 36.9733C25.4746 37.0603 25.6598 37.1024 25.873 37.1024H26.1844C26.6669 37.1024 26.9053 36.8695 26.9053 36.4039V32.7009H27.3766Z" fill="#4C4C4E"/>
<path d="M28.4958 32.7036H28.9671L28.9755 37.638H28.5043L28.4958 32.7036Z" fill="#4C4C4E"/>
<path d="M32.3644 37.4501C32.1624 37.3267 32.0109 37.1612 31.9071 36.9564C31.8061 36.7516 31.7669 36.5272 31.7921 36.2831C31.8061 36.0896 31.8875 35.6828 32.0362 35.0601L32.485 35.1751C32.4738 35.22 32.4345 35.3939 32.3672 35.6968C32.2998 35.9998 32.2606 36.2102 32.2494 36.3308C32.2437 36.3561 32.2409 36.3925 32.2409 36.4374C32.2409 36.6394 32.3139 36.8021 32.4569 36.9227C32.6 37.0434 32.802 37.1051 33.0601 37.1051H36.3282C36.575 37.1051 36.763 37.0321 36.892 36.8891C37.0183 36.7432 37.0828 36.5721 37.0828 36.3673C37.0828 36.1289 37.0042 35.6632 36.8472 34.9675L37.31 34.8469C37.4727 35.5622 37.5541 36.0671 37.5541 36.3673C37.5541 36.5637 37.5064 36.76 37.4138 36.9564C37.3212 37.1528 37.181 37.3127 36.9958 37.4417C36.8107 37.5707 36.5891 37.6353 36.331 37.6353H33.0629C32.7992 37.6353 32.5663 37.5736 32.3644 37.4501ZM33.7558 34.6196H34.4318V35.2957H33.7558V34.6196ZM35.0181 34.6196H35.6942V35.2957H35.0181V34.6196Z" fill="#4C4C4E"/>
<path d="M38.62 32.7036H39.0913L39.0997 37.638H38.6284L38.62 32.7036Z" fill="#4C4C4E"/>
<path d="M40.8333 33.6157V34.2918H41.5093V33.6157H40.8333Z" fill="#4C4C4E"/>
<path d="M43.6078 38.73V39.4088H44.2867V38.73H43.6078ZM42.3455 38.73V39.4088H43.0243V38.73H42.3455Z" fill="#4C4C4E"/>
<path d="M51.4401 38.5864V39.2625H52.1161V38.5864H51.4401Z" fill="#4C4C4E"/>
<path d="M56.0602 33.3408V34.0169H56.7391V33.3408H56.0602ZM54.7979 33.3408V34.0169H55.4767V33.3408H54.7979Z" fill="#4C4C4E"/>
<path d="M56.6577 35.781C56.6044 35.4808 56.5483 35.2003 56.4866 34.9366L56.0293 35.0572C56.091 35.3069 56.1471 35.5706 56.1948 35.8539C56.2425 36.1344 56.265 36.3448 56.265 36.4879C56.265 36.6702 56.2033 36.8189 56.0798 36.9311C55.9564 37.0461 55.746 37.1022 55.4542 37.1022H53.7487C53.3335 37.1022 53.0894 36.9423 53.0137 36.6169L53.7122 36.1597L53.6056 35.6126C53.5607 35.593 53.513 35.5734 53.4597 35.5537C53.4092 35.5313 53.3559 35.5088 53.2942 35.4836C52.5845 35.189 52.0487 34.9758 51.6868 34.8412C51.3249 34.7065 51.0612 34.6392 50.8985 34.6392C50.3768 34.6392 50.0121 34.9618 49.8045 35.607L50.2617 35.7501C50.3375 35.5285 50.4216 35.3742 50.5198 35.2928C50.6152 35.2143 50.7414 35.1722 50.8985 35.1722C51.022 35.1722 51.2576 35.2367 51.6055 35.3658C51.9561 35.4948 52.447 35.6912 53.081 35.9549C52.6602 36.2242 52.318 36.4346 52.0543 36.5833C51.7906 36.7319 51.4989 36.8554 51.1819 36.9564C50.8621 37.0545 50.5226 37.1022 50.1608 37.1022H48.8984C48.702 37.1022 48.5141 37.1583 48.3373 37.2677C48.1606 37.3771 48.0175 37.5314 47.9081 37.7306C47.7987 37.9298 47.7454 38.1598 47.7454 38.4179V39.0182C47.1704 39.0042 46.7608 38.8976 46.5139 38.7012C46.2643 38.502 46.1408 38.1879 46.1408 37.7558V37.6352H46.3316C46.8674 37.6352 47.3303 37.5286 47.7202 37.3154C48.1129 37.1022 48.343 36.7712 48.4131 36.3196C48.4271 36.2186 48.4355 36.1232 48.4355 36.0306C48.4355 35.7529 48.3738 35.5004 48.2504 35.276C48.1241 35.0488 47.9558 34.8749 47.7454 34.7514C47.5322 34.6252 47.3022 34.5635 47.061 34.5635C46.6233 34.5635 46.2839 34.7178 46.037 35.0235C45.793 35.3321 45.6696 35.7501 45.6696 36.2831V37.1022H44.9402C44.4773 37.1022 44.2473 36.889 44.2473 36.4654V35.3321H43.776V36.4037C43.776 36.8694 43.4983 37.1022 42.9401 37.1022H42.1406C41.6805 37.1022 41.4505 36.889 41.4505 36.4654V35.3321H40.9792V37.5146C40.9792 38.0476 40.8614 38.4291 40.6285 38.6647C40.3957 38.9004 40.0198 39.0182 39.5036 39.0182H39.0239V39.5512H39.5036C40.132 39.5512 40.6145 39.3773 40.9483 39.0294C41.2821 38.6844 41.4505 38.1766 41.4505 37.5146V37.3547C41.5402 37.4501 41.6468 37.523 41.7703 37.5679C41.8909 37.6128 42.0143 37.6352 42.1406 37.6352H42.9401C43.1532 37.6352 43.3524 37.5959 43.5404 37.5146C43.7283 37.4332 43.877 37.3098 43.9892 37.1499C44.1042 37.3098 44.2529 37.4332 44.4324 37.5146C44.612 37.5959 44.7831 37.6352 44.9402 37.6352H45.6696V37.7558C45.6696 38.3449 45.8547 38.791 46.2278 39.0996C46.6009 39.4053 47.1283 39.5596 47.8128 39.5596L48.2167 39.0883V38.4179C48.2167 38.171 48.2812 37.9775 48.4103 37.84C48.5393 37.7054 48.702 37.6352 48.8984 37.6352H50.1608C50.618 37.6352 51.0416 37.5679 51.4315 37.4304C51.8215 37.293 52.2282 37.0994 52.649 36.8441C52.7079 37.1078 52.8426 37.307 53.0474 37.4389C53.2521 37.5707 53.4878 37.6352 53.7487 37.6352H55.4542C55.7404 37.6352 55.9816 37.5791 56.1752 37.4669C56.3688 37.3575 56.509 37.2144 56.6016 37.0377C56.6914 36.8638 56.7391 36.6814 56.7391 36.4879C56.7391 36.3168 56.711 36.0811 56.6577 35.781ZM46.1408 36.2831C46.1408 35.8707 46.2138 35.5706 46.3653 35.3826C46.5139 35.1919 46.7468 35.0965 47.061 35.0965C47.3246 35.0965 47.5407 35.175 47.709 35.3349C47.8801 35.4948 47.9642 35.7164 47.9642 36.0026C47.9642 36.0783 47.9558 36.1569 47.9418 36.2438C47.8969 36.5384 47.7314 36.7544 47.4425 36.8946C47.1563 37.0349 46.786 37.1022 46.3316 37.1022H46.1408V36.2831Z" fill="#4C4C4E"/>
<path d="M64.6808 33.6749V34.351H65.3597V33.6749H64.6808ZM65.3653 32.7632V33.4168H66.0133V32.7632H65.3653ZM66.0133 33.6749V34.351H66.6893V33.6749H66.0133Z" fill="#4C4C4E"/>
<path d="M70.3838 33.2202V33.8963H71.0599V33.2202H70.3838Z" fill="#4C4C4E"/>
<path d="M75.2201 38.4126V39.0887H75.8961V38.4126H75.2201ZM74.5636 39.3467V40.0004H75.2201V39.3467H74.5636ZM73.882 38.4126V39.0887H74.558V38.4126H73.882Z" fill="#4C4C4E"/>
<path d="M76.4879 36.4883C76.4879 36.6819 76.443 36.8642 76.3504 37.0381C76.2607 37.2149 76.1176 37.3579 75.9268 37.4673C75.7333 37.5795 75.492 37.6357 75.2031 37.6357H73.5003C73.2366 37.6357 73.0038 37.5711 72.7962 37.4393C72.5914 37.3074 72.4595 37.1083 72.3978 36.8446C71.977 37.0998 71.5731 37.2934 71.1832 37.4309C70.7904 37.5683 70.3696 37.6357 69.9124 37.6357H68.6192C68.4116 37.6357 68.2208 37.5936 68.0497 37.5094C67.8786 37.4281 67.7355 37.3046 67.6233 37.1419C67.5335 37.3046 67.3933 37.4281 67.2109 37.5094C67.0258 37.5936 66.8406 37.6357 66.6583 37.6357C66.4759 37.6357 66.2908 37.5936 66.1141 37.5094C65.9401 37.4281 65.7943 37.3046 65.6793 37.1419C65.5811 37.299 65.4464 37.4196 65.2725 37.5066C65.0958 37.5936 64.9134 37.6357 64.7199 37.6357C64.4253 37.6357 64.1841 37.5599 63.9905 37.4084V37.7563C63.9905 38.9541 63.3677 39.5516 62.1194 39.5516H61.3059C60.9019 39.5516 60.5541 39.4506 60.2651 39.2515C59.9762 39.0523 59.7602 38.7886 59.6143 38.4604C59.4712 38.135 59.3983 37.7815 59.3983 37.4084C59.3983 36.8137 59.5694 36.1797 59.9145 35.5009L60.3184 35.7113C60.0183 36.3368 59.8696 36.9007 59.8696 37.4084C59.8696 37.8797 59.9902 38.2668 60.2315 38.567C60.4727 38.87 60.829 39.0186 61.3059 39.0186H62.1194C62.4701 39.0186 62.745 38.9766 62.9498 38.8896C63.1517 38.8054 63.2976 38.6708 63.3846 38.4884C63.4743 38.3061 63.5192 38.062 63.5192 37.7563V35.3325H63.9905V36.4041C63.9905 36.6566 64.0522 36.839 64.1813 36.9456C64.3075 37.0494 64.487 37.1027 64.7199 37.1027C65.2052 37.1027 65.4492 36.8698 65.4492 36.4041V35.3325H65.9205V36.4041C65.9205 36.8698 66.1674 37.1027 66.6583 37.1027C66.8855 37.1027 67.0622 37.0494 67.1857 36.9456C67.3119 36.839 67.3736 36.6566 67.3736 36.4041V35.3325H67.8449V36.4041C67.8449 36.6538 67.9066 36.8305 68.0301 36.9399C68.1535 37.0494 68.3499 37.1027 68.6192 37.1027H69.9124C70.2714 37.1027 70.6109 37.055 70.9307 36.9568C71.2505 36.8558 71.5422 36.7324 71.8059 36.5837C72.0696 36.435 72.4119 36.2246 72.8326 35.9553C72.1987 35.6916 71.7077 35.4952 71.3571 35.3662C71.0064 35.2372 70.7708 35.1726 70.6502 35.1726C70.4931 35.1726 70.3668 35.2147 70.2686 35.2933C70.1733 35.3746 70.0863 35.5289 70.0106 35.7505L69.5561 35.6075C69.7637 34.9623 70.1284 34.6396 70.6502 34.6396C70.8129 34.6396 71.0737 34.707 71.4356 34.8416C71.7975 34.9763 72.3333 35.1895 73.043 35.484C73.1047 35.5093 73.1609 35.5317 73.2113 35.5542C73.2618 35.5738 73.3095 35.5934 73.3572 35.6131L73.4638 36.1601L72.7625 36.6173C72.8382 36.9428 73.0851 37.1027 73.5003 37.1027H75.2031C75.4976 37.1027 75.7052 37.0465 75.8314 36.9315C75.9549 36.8193 76.0166 36.6706 76.0166 36.4883C76.0166 36.3452 75.9913 36.1348 75.9437 35.8543C75.896 35.571 75.8427 35.3073 75.781 35.0576L76.2382 34.937C76.2971 35.2007 76.356 35.4812 76.4093 35.7814C76.4626 36.0815 76.4879 36.3172 76.4879 36.4883Z" fill="#4C4C4E"/>
<path d="M80.8474 38.878C81.0522 38.7854 81.1981 38.6452 81.2794 38.4628C81.3636 38.2805 81.4057 38.042 81.4057 37.7475V37.6269H80.508C80.1012 37.6269 79.773 37.509 79.5234 37.2734C79.2737 37.0378 79.1475 36.6983 79.1475 36.2579C79.1475 35.9549 79.2036 35.68 79.3186 35.4332C79.4336 35.1863 79.5935 34.9927 79.8011 34.8469C80.0087 34.7038 80.2415 34.6309 80.4996 34.6309C80.9148 34.6309 81.2486 34.7823 81.4982 35.0825C81.7479 35.3827 81.8742 35.7754 81.8742 36.2579V37.7475C81.8742 38.3113 81.7255 38.7518 81.4281 39.0716C81.1308 39.3914 80.6539 39.5513 79.9946 39.5513H79.2428V39.0183H79.9946C80.3537 39.0183 80.637 38.9706 80.8418 38.878H80.8474ZM79.8403 36.9003C79.9862 37.0293 80.2106 37.0939 80.508 37.0939H81.4057V36.2579C81.4057 35.9129 81.3271 35.6436 81.1728 35.4528C81.0186 35.2592 80.7941 35.1639 80.4996 35.1639C80.2247 35.1639 80.0115 35.262 79.8544 35.4612C79.6973 35.6604 79.6187 35.9241 79.6187 36.2607C79.6187 36.5609 79.6917 36.7741 79.8403 36.9031V36.9003Z" fill="#4C4C4E"/>
<path d="M90.6855 35.7807C90.6322 35.4806 90.5761 35.2 90.5144 34.9364L90.0571 35.057C90.1188 35.3066 90.1749 35.5703 90.2226 35.8537C90.2703 36.1342 90.2956 36.3446 90.2956 36.4877C90.2956 36.67 90.231 36.8187 90.1076 36.9309C89.9842 37.0459 89.7738 37.102 89.4792 37.102H87.754C87.4146 37.102 87.1509 37.0627 86.9657 36.9842C86.7778 36.9056 86.6151 36.785 86.4776 36.6167L87.5885 35.8565C87.7035 35.7751 87.7933 35.6741 87.855 35.5535C87.9139 35.4301 87.9448 35.3038 87.9448 35.172C87.9448 34.9448 87.8662 34.7428 87.7091 34.5689C87.552 34.3921 87.3444 34.3052 87.0864 34.3052H85.0413L84.7524 34.8382C84.9796 35.1972 85.1956 35.5283 85.3976 35.834L85.6725 36.252C85.3078 36.44 85.0273 36.6784 84.8365 36.9674C84.643 37.2563 84.5476 37.5649 84.5476 37.8931C84.5476 38.081 84.5785 38.2662 84.6374 38.4485C84.7804 38.8581 85.0133 39.147 85.3387 39.3069C85.6613 39.4696 86.0456 39.551 86.486 39.551H87.869V39.018H86.486C86.1157 39.018 85.8156 38.9647 85.5855 38.8553C85.3527 38.7459 85.1872 38.5523 85.0862 38.2746C85.0357 38.1371 85.0105 37.9969 85.0105 37.8566C85.0105 37.6238 85.0862 37.4078 85.2377 37.2142C85.3892 37.0178 85.622 36.8467 85.9306 36.7009L85.9614 36.684L86.0204 36.7766C86.1438 36.9533 86.2672 37.102 86.3906 37.2198C86.5141 37.3404 86.674 37.4386 86.8704 37.5172C87.0639 37.5957 87.3052 37.635 87.5941 37.635H89.4792C89.771 37.635 90.0094 37.5789 90.203 37.4667C90.3965 37.3573 90.5368 37.2142 90.6294 37.0375C90.7191 36.8636 90.764 36.6812 90.764 36.4877C90.764 36.3165 90.7388 36.0809 90.6855 35.7807ZM86.1971 36.1987L85.8156 35.6068L85.3134 34.8073H87.0864C87.2014 34.8073 87.2967 34.8382 87.3669 34.9027C87.437 34.9644 87.4735 35.043 87.4735 35.1355C87.4735 35.2505 87.4174 35.3487 87.3052 35.4301L86.1971 36.1987Z" fill="#4C4C4E"/>
<path d="M89.8158 38.7378V39.4139H90.4919V38.7378H89.8158ZM88.5535 38.7378V39.4139H89.2295V38.7378H88.5535Z" fill="#4C4C4E"/>
<path d="M93.4933 35.3322V37.5146C93.4933 38.1795 93.325 38.6844 92.9912 39.0323C92.6573 39.3801 92.1748 39.5541 91.5465 39.5541H91.0668V39.0211H91.5465C92.0626 39.0211 92.4385 38.9032 92.6714 38.6676C92.9042 38.432 93.022 38.0476 93.022 37.5146V35.3322H93.4933ZM92.9014 33.6069H93.5775V34.283H92.9014V33.6069Z" fill="#4C4C4E"/>
<path d="M98.9917 33.3408V34.0169H99.6678V33.3408H98.9917ZM97.7294 33.3408V34.0169H98.4054V33.3408H97.7294Z" fill="#4C4C4E"/>
<path d="M99.5891 35.7814C99.5358 35.4812 99.4769 35.2007 99.418 34.937L98.9608 35.0576C99.0225 35.3073 99.0758 35.571 99.1235 35.8543C99.1712 36.1348 99.1964 36.3452 99.1964 36.4883C99.1964 36.6706 99.1347 36.8193 99.0113 36.9315C98.885 37.0465 98.6774 37.1027 98.3829 37.1027H97.0055V36.2667C97.0055 35.787 96.8821 35.3943 96.6296 35.0941C96.3799 34.7911 96.0461 34.6396 95.6309 34.6396C95.3729 34.6396 95.14 34.7126 94.9324 34.8585C94.722 35.0015 94.5621 35.1979 94.4471 35.4419C94.3349 35.6888 94.2788 35.9637 94.2788 36.2667C94.2788 36.7071 94.4022 37.0465 94.6547 37.2822C94.9044 37.5178 95.2326 37.6357 95.6394 37.6357H96.5342V37.7563C96.5342 38.0508 96.4921 38.2893 96.4108 38.4716C96.3266 38.654 96.1808 38.7914 95.976 38.8868C95.7712 38.9794 95.4879 39.0271 95.1288 39.0271H94.377V39.5601H95.1288C95.788 39.5601 96.2649 39.3973 96.5623 39.0775C96.8596 38.7549 97.0055 38.3145 97.0055 37.7563V37.6357H98.3829C98.6718 37.6357 98.9131 37.5795 99.1038 37.4673C99.2974 37.3579 99.4405 37.2149 99.5302 37.0381C99.6228 36.8642 99.6677 36.6819 99.6677 36.4883C99.6677 36.3172 99.6396 36.0815 99.5891 35.7814ZM96.5342 37.1027H95.6394C95.3392 37.1027 95.1148 37.0381 94.9689 36.9091C94.823 36.7801 94.7501 36.5669 94.7501 36.2667C94.7501 35.9329 94.8286 35.6664 94.9829 35.4644C95.1428 35.2652 95.356 35.1642 95.6309 35.1642C95.9255 35.1642 96.1499 35.2624 96.3042 35.4588C96.4585 35.6523 96.5342 35.9216 96.5342 36.2667V37.1027Z" fill="#4C4C4E"/>
</svg>
