<svg width="242" height="52" viewBox="0 0 242 52" fill="none" xmlns="http://www.w3.org/2000/svg">
<path d="M40.4478 22.5973C48.4862 26.1026 48.552 34.0373 45.6483 39.596C42.4666 45.6753 37.0759 48.8506 30.5662 50.0753C27.7429 50.6033 24.766 50.3173 21.8622 50.3833C17.4078 50.4786 12.9534 50.596 8.49901 50.5886C7.91387 50.5886 6.89718 49.914 6.84598 49.4666C6.7509 48.6306 7.1093 47.6773 7.5189 46.9C7.71638 46.5333 8.46244 46.328 8.98176 46.284C12.0245 46.042 14.131 44.6486 14.9575 41.62C16.4423 36.186 17.9271 30.752 19.368 25.3106C20.2896 21.82 21.1527 18.3073 22.0231 14.802C22.1767 14.1713 22.2645 13.5186 22.3742 12.8953C21.7744 12.5726 21.2332 12.3453 20.7651 12.008C20.0995 11.5386 19.6533 10.8713 20.1872 10.094C20.6188 9.4633 21.1674 8.59797 21.7964 8.45864C24.5904 7.84997 27.4357 7.44664 30.2663 7.00664C31.4 6.83064 32.2485 8.01864 31.9267 9.21397C30.8734 13.064 29.8348 16.914 28.8035 20.764C28.7084 21.116 28.6791 21.4826 28.6133 21.8566C35.9276 22.1133 40.7038 16.0193 39.6652 10.1233C39.2629 7.84264 37.5952 6.4933 35.4229 5.84797C31.9413 4.80664 28.4158 5.05597 24.9635 5.88464C17.3786 7.71064 11.2272 11.6486 7.29216 18.5786C5.81467 21.182 4.92233 23.9906 4.91501 27.034C4.91501 29.5053 5.71958 31.5293 7.8773 32.908C8.46976 33.2893 9.04027 33.7073 9.58884 34.1546C11.3516 35.592 11.7685 37.55 10.664 39.1193C9.59616 40.6373 7.50427 40.938 5.60987 39.7353C3.15958 38.1806 1.61627 35.8706 0.833641 33.1353C-0.658473 27.8846 0.0436986 22.7733 2.3989 17.926C7.3653 7.69597 15.9962 2.58464 26.8871 0.868637C31.0928 0.208637 35.3571 0.142637 39.4677 1.44797C43.6442 2.7753 46.9502 5.22464 47.5719 9.89597C48.2229 14.78 46.0871 18.564 42.2106 21.4313C41.6912 21.8126 41.1427 22.1573 40.4551 22.6266L40.4478 22.5973ZM27.3772 26.5646C25.4974 33.0033 24.5319 39.4786 21.4892 45.492C22.4912 45.6386 23.3031 45.7926 24.1296 45.8806C32.2339 46.724 38.6851 40.6006 38.0853 32.644C37.8805 29.9453 36.1836 27.7893 33.5212 27.254C31.5171 26.858 29.4471 26.7846 27.3772 26.5646Z" fill="#E60012"/>
<path d="M181.233 22.3993C181.343 21.7613 181.423 21.3066 181.511 20.7933H187.275V50.6473H181.475V47.098C177.554 50.7133 173.312 52.224 168.345 51.41C163.408 50.596 159.649 48.0073 156.935 43.8786C152.642 37.3446 153.746 28.5593 159.393 22.9273C164.074 18.256 173.7 15.5353 181.233 22.392V22.3993ZM181.409 34.9833C181.979 29.498 176.845 24.5186 171.213 24.482C165.471 24.438 160.695 29.0946 160.644 34.7633C160.592 40.5933 165.303 45.3526 171.205 45.3453C176.779 45.3453 181.928 40.3513 181.401 34.9833H181.409Z" fill="#231815"/>
<path d="M62.1054 43.7026C65.7114 46.2326 71.8554 45.6019 74.8981 42.2579C76.361 40.652 77.5825 40.2706 79.4403 41.268C80.4131 41.7886 81.5249 42.0599 82.5781 42.4413C80.9105 47.648 73.0476 52.0993 66.6695 51.5126C58.1338 50.7206 52.0702 44.9053 51.0682 36.538C50.1685 29.0433 54.7473 21.6586 61.886 19.092C69.0979 16.5033 77.3996 18.9526 81.1591 24.9073C74.8396 31.1406 68.4908 37.4033 62.1127 43.7026H62.1054ZM71.8334 25.0466C69.054 23.1473 62.5516 24.592 59.7502 28.1046C57.1829 31.324 56.3564 36.78 58.0826 38.804C62.6467 34.2353 67.2181 29.6666 71.8407 25.0466H71.8334Z" fill="#231815"/>
<path d="M115.331 25.0906C108.983 31.324 102.656 37.5426 96.2924 43.7906C100.008 46.35 106.342 45.4186 109.4 41.8473C110.497 40.564 111.433 40.3513 112.881 41.0626C114.088 41.6493 115.412 42.0013 116.692 42.456C113.92 48.0366 106.869 52.818 98.5891 51.2853C91.4357 49.958 85.6282 43.5706 85.0869 36.2373C84.5091 28.42 89.2268 21.226 96.4899 18.8646C103.409 16.606 111.63 19.2313 115.331 25.098V25.0906ZM105.772 25.032C102.349 23.25 96.6654 24.6286 93.8129 28.0533C91.3333 31.0306 90.4702 36.67 92.0574 38.76C96.6289 34.184 101.215 29.586 105.764 25.032H105.772Z" fill="#231815"/>
<path d="M241.949 34.8146C241.934 44.2306 234.532 51.542 225.046 51.5273C215.91 51.5126 208.479 44.084 208.435 34.9246C208.391 25.5233 215.815 18.0726 225.214 18.0653C234.569 18.0653 241.964 25.4646 241.942 34.8146H241.949ZM225.221 45.1693C231.109 45.1693 235.659 40.5933 235.651 34.6973C235.644 29.014 230.89 24.3133 225.177 24.3353C219.399 24.3573 214.718 29.0873 214.733 34.888C214.747 40.608 219.406 45.1766 225.221 45.1693Z" fill="#231815"/>
<path d="M150.945 27.078C149.219 27.7086 147.544 28.464 145.788 28.8893C145.24 29.0213 144.325 28.398 143.842 27.8773C139.403 23.074 132.132 23.1693 127.97 28.1413C124.408 32.3946 124.884 38.7966 129.031 42.522C133.178 46.2473 139.542 46.1813 143.272 42.1553C144.676 40.6446 145.898 40.3293 147.668 41.2533C148.655 41.7666 149.767 42.0453 150.828 42.434C148.275 48.0806 141.758 52.0846 134.853 51.5126C124.818 50.684 119.947 42.9253 119.362 36.428C118.623 28.2146 123.736 20.72 131.372 18.696C140.076 16.386 147.28 20.4486 150.952 27.0853L150.945 27.078Z" fill="#231815"/>
<path d="M207.901 19.95V26.0513C206.965 26.308 205.97 26.4326 205.107 26.8433C201.252 28.684 199.614 31.896 199.599 36.054C199.592 40.3733 199.599 44.7 199.599 49.0193C199.599 49.5253 199.599 50.0386 199.599 50.6326H193.653V20.7933H199.497V24.636C201.933 21.9153 204.346 19.994 207.901 19.9353V19.95Z" fill="#231815"/>
</svg>
