<svg width="244" height="74" viewBox="0 0 244 74" fill="none" xmlns="http://www.w3.org/2000/svg">
<path d="M0.0713425 31.3339C0.0713425 22.5189 0.0713425 13.704 0.0713425 4.88907C0.0713425 2.43147 0.4142 2.0816 2.8742 2.0816C14.5656 2.0816 26.2656 2.1072 37.9571 2.0816C41.1799 2.0816 43.9656 3.19947 46.3142 5.27307C47.3942 6.2288 48.2599 7.49174 48.9799 8.7632C52.6828 15.2741 50.4456 22.8859 45.4142 26.8112C44.8142 27.2805 44.1713 27.6987 43.5628 28.1595C42.3713 29.0555 42.4056 29.8832 43.6828 30.6341C44.4628 31.0949 45.2771 31.496 46.0571 31.9483C50.0771 34.2693 52.2371 37.8277 52.9913 42.3077C53.4971 45.3371 53.3171 48.3237 52.0999 51.1909C50.1028 55.8757 46.6913 58.8965 41.6599 60.0912C38.8228 60.7653 35.9513 60.8677 33.0542 60.8677C22.9571 60.8507 12.8599 60.8677 2.76277 60.8677C2.47991 60.8677 2.18848 60.8677 1.90563 60.8336C0.72277 60.7056 0.191343 60.1851 0.105629 59.0075C0.0542004 58.2309 0.0713425 57.4373 0.0713425 56.6608C0.0713425 48.2213 0.0713425 39.7904 0.0713425 31.3509H0.0541992L0.0713425 31.3339ZM23.2656 52.8123C23.2656 52.8123 23.2656 52.8123 23.2656 52.8037C25.9656 52.8037 28.6571 52.7781 31.3571 52.8037C35.1713 52.8549 38.0856 51.1397 40.3913 48.2555C40.8713 47.6581 41.2828 46.9243 41.4713 46.1904C43.0313 40.1659 39.4228 36.0613 34.4942 34.7813C32.8999 34.3717 31.1856 34.312 29.5228 34.2693C26.0428 34.184 22.5542 34.2096 19.0742 34.2096C17.3599 34.2096 15.6371 34.1925 13.9228 34.2779C12.3371 34.3632 11.6171 35.1653 11.5142 36.7355C11.4971 36.9488 11.4971 37.1621 11.4971 37.3755C11.4971 41.5056 11.4971 45.6443 11.5056 49.7744C11.5056 52.1296 12.1485 52.7696 14.5228 52.8123C14.5913 52.8123 14.6685 52.8123 14.7371 52.8123C17.5742 52.8123 20.4199 52.8123 23.2571 52.8123H23.2656ZM22.6656 10.2992C22.6656 10.2992 22.6656 10.2992 22.6656 10.2907C20.0856 10.2907 17.5142 10.2907 14.9342 10.2907C14.4371 10.2907 13.9313 10.3163 13.4342 10.4016C12.4742 10.5723 11.8142 11.1611 11.8056 12.1253C11.7542 16.3067 11.7542 20.488 11.8056 24.6608C11.8142 25.6251 12.4656 26.1968 13.4342 26.3845C13.8285 26.4613 14.2399 26.4869 14.6428 26.4869C19.6742 26.4869 24.7142 26.4357 29.7456 26.504C31.9142 26.5381 33.8256 25.9152 35.6342 24.8229C37.8199 23.5088 38.8571 21.4352 39.3371 19.0629C39.4828 18.3376 39.3542 17.4843 39.1228 16.7589C37.8799 12.7995 34.4856 10.3333 30.3199 10.2907C27.7656 10.2651 25.2113 10.2907 22.6571 10.2907L22.6656 10.2992Z" fill="black"/>
<path d="M243.929 31.3509C243.8 37.4949 242.197 43.2123 238.829 48.392C237.431 50.5424 235.829 52.5648 233.9 54.2971C230.403 57.4373 226.4 59.6731 221.951 61.1323C217.923 62.4549 213.791 62.6341 209.583 62.2928C203.994 61.8405 199.1 59.7243 194.531 56.6011C190.589 53.9045 187.7 50.3291 185.429 46.2416C184.006 43.6901 183.054 40.9253 182.437 38.0325C181.863 35.3189 181.349 32.6139 181.623 29.8405C182.18 24.1659 183.723 18.824 186.989 14.0197C190.546 8.78881 195.209 4.94028 201.046 2.52534C203.017 1.70614 205.074 1.15148 207.217 0.776012C209.729 0.340812 212.231 0.0250797 214.76 0.25548C223.049 1.03201 230.137 4.26615 235.777 10.4869C238.563 13.5675 240.629 17.0576 242.017 20.9573C243.217 24.3195 243.92 27.7669 243.929 31.3509ZM212.857 53.0085C214.091 52.872 215.351 52.872 216.543 52.5733C221.051 51.4384 224.463 48.7077 227.171 45.0384C229.7 41.608 230.703 37.5973 231.346 33.4928C231.877 30.1051 231.029 26.8539 230.086 23.6709C228.843 19.4469 226.254 16.0763 222.783 13.3541C219.714 10.9477 216.226 9.89814 212.386 10.0091C210.92 10.0517 209.403 10.2053 208.014 10.6405C205.589 11.4085 203.411 12.6715 201.526 14.4293C197.771 17.9365 195.354 22.1179 194.711 27.2549C194.634 27.8437 194.446 28.4155 194.377 29.0043C194.266 29.9685 194.069 30.9499 194.146 31.9056C194.266 33.3904 194.591 34.8582 194.823 36.3429C195.44 40.3622 197.189 43.8779 199.871 46.8731C203.3 50.7045 207.526 53.0427 212.866 53.0171L212.857 53.0085Z" fill="black"/>
<path d="M183.449 73.8128C182.231 73.5312 180.98 73.3435 179.806 72.9424C174.431 71.1077 169.503 68.4795 165.543 64.3664C163.991 62.7536 162.766 60.808 161.48 58.9648C158.617 54.8688 155.797 50.7472 152.986 46.6256C150.731 43.3232 148.511 40.0037 146.266 36.7013C144.517 34.1243 142.743 31.5643 140.994 28.9872C137.583 23.9696 134.189 18.952 130.777 13.9344C128.411 10.4528 126.02 6.98827 123.671 3.4896C123.431 3.1312 123.38 2.63627 123.243 2.2096C123.689 2.14987 124.16 1.9792 124.589 2.04747C128.026 2.5936 131.48 3.21653 134.729 4.4624C137.797 5.64 140.429 7.5088 142.211 10.3931C142.811 11.3659 143.514 12.2704 144.157 13.2091C145.76 15.5387 147.337 17.8853 148.966 20.1979C150.2 21.9472 151.503 23.6453 152.746 25.3776C153.466 26.3845 154.126 27.4256 154.846 28.4411C158.266 33.2795 161.703 38.1008 165.106 42.9392C167.909 46.9243 170.651 50.952 173.454 54.9456C175.246 57.4971 177.114 59.9888 178.914 62.5317C180.809 65.2112 182.669 67.9163 184.537 70.6128C184.974 71.2357 185.42 71.8587 185.814 72.4987C186.157 73.0619 186.003 73.4117 185.351 73.5141C184.743 73.608 184.117 73.5995 183.5 73.6421C183.483 73.7019 183.466 73.7616 183.449 73.8128Z" fill="#088B91"/>
<path d="M89.1628 36.6416C82.5542 36.6416 75.9456 36.6245 69.3371 36.6501C66.9628 36.6587 65.4799 35.3701 64.5285 33.4246C63.6113 31.5472 63.7228 29.6357 65.0085 27.9035C66.2856 26.1797 67.8799 25.3094 70.1771 25.3264C83.0599 25.4118 95.9514 25.3691 108.834 25.3862C111.74 25.3862 114.174 27.8779 114.311 30.7792C114.406 32.7419 113.703 34.295 112.229 35.5494C111.311 36.3259 110.266 36.6587 109.066 36.6587C102.431 36.6416 95.7971 36.6587 89.1628 36.6587V36.6416Z" fill="black"/>
<path d="M90.98 12.0827C85.3914 12.0827 79.8114 12.0571 74.2229 12.0912C69.9714 12.1168 66.9886 10.1627 65.1543 6.4336C64.64 5.384 64.2886 4.21493 64.0914 3.06293C63.8257 1.56107 64.4 0.997867 65.9172 0.9552C65.9857 0.9552 66.0629 0.9552 66.1314 0.9552C77.7114 0.9552 89.2829 0.955202 100.863 0.963735C105.183 0.963735 108.02 3.3872 110.069 6.8688C110.643 7.8416 110.943 9.03627 111.097 10.1627C111.277 11.4853 110.669 12.0485 109.323 12.0656C106.914 12.0997 104.497 12.0912 102.089 12.0912C98.3857 12.0912 94.6915 12.0912 90.9886 12.0912L90.98 12.0827Z" fill="black"/>
<path d="M84.3284 60.8592C78.4312 60.8592 72.5426 60.8592 66.6455 60.8592C64.4512 60.8592 63.8255 59.9717 64.5541 57.8811C65.5141 55.1419 67.0227 52.8805 69.7141 51.5067C70.9484 50.8837 72.2255 50.6192 73.5712 50.6192C80.6341 50.6107 87.6969 50.6192 94.7598 50.6192C99.2426 50.6192 103.734 50.6192 108.217 50.6192C108.697 50.6192 109.177 50.6277 109.64 50.7045C110.548 50.8496 110.994 51.4213 110.848 52.3173C110.206 56.3109 107.274 59.6731 103.554 60.6715C102.988 60.8251 102.371 60.8336 101.78 60.8336C95.9598 60.8421 90.1398 60.8336 84.3112 60.8336C84.3112 60.8336 84.3112 60.8507 84.3112 60.8592H84.3284Z" fill="black"/>
<path d="M128.806 60.8165C126.988 60.8165 125.18 60.8165 123.363 60.8165C123.097 60.8165 122.84 60.808 122.574 60.7739C121.554 60.6629 121.203 60.0912 121.708 59.1952C122.291 58.1627 122.96 57.1728 123.62 56.1915C126.311 52.1637 129.011 48.1275 131.728 44.1083C133.006 42.2139 134.3 40.3365 135.611 38.4677C136.271 37.5291 136.966 37.5035 137.686 38.4165C139.794 41.1131 141.886 43.8267 143.977 46.5403C144.586 47.3253 144.774 48.1616 144.183 49.0405C141.98 52.3685 139.743 55.6795 137.557 59.0245C136.674 60.3813 135.491 60.936 133.88 60.8507C132.191 60.7653 130.494 60.8336 128.797 60.8336V60.8165H128.806Z" fill="black"/>
<path d="M169.211 1.9536C171.166 1.9536 173.12 1.9536 175.083 1.9536C175.271 1.9536 175.469 1.9536 175.657 1.9792C176.9 2.09014 177.2 2.696 176.497 3.73707C173.626 7.9696 170.746 12.1936 167.874 16.4176C166.649 18.2267 165.423 20.0443 164.197 21.8533C164.129 21.9557 164.069 22.0496 164 22.152C163.083 23.4661 162.397 23.5515 161.351 22.3227C159.174 19.7712 157.057 17.1685 154.914 14.5915C154.28 13.832 154.297 13.0213 154.786 12.2107C155.446 11.1355 156.114 10.0688 156.791 9.01067C157.966 7.16747 159.157 5.3328 160.323 3.48107C160.966 2.4656 161.849 1.96214 163.057 1.96214C165.106 1.97067 167.163 1.96214 169.211 1.96214V1.94507V1.9536Z" fill="black"/>
</svg>
