<svg width="262" height="86" viewBox="0 0 262 86" fill="none" xmlns="http://www.w3.org/2000/svg">
<path d="M50.4675 0.134508C59.2276 0.134508 67.9878 0.134508 76.748 0.118774C77.3664 0.118774 77.7892 0.307575 78.2198 0.740242C83.9111 6.48291 89.6103 12.2098 95.3095 17.9446C96.3899 19.0302 97.5172 20.1473 97.4859 21.7914C97.4624 23.0894 97.2119 24.3953 96.93 25.6697C93.9395 39.2476 90.9177 52.8097 87.9037 66.3797C87.2618 69.2668 86.7059 72.1696 85.9074 75.0173C84.1695 81.2241 77.9693 85.8654 71.5655 85.8654C57.5289 85.8654 43.4922 85.8654 29.4634 85.8654C26.5042 85.8654 23.8582 84.9529 21.7288 82.8289C15.7321 76.8502 9.72759 70.8716 3.77788 64.8457C0.787362 61.8092 0.0358194 58.1197 0.959591 54.0054C3.51953 42.5752 6.07165 31.137 8.63159 19.7068C9.28136 16.7961 9.85285 13.8697 10.6514 10.9984C12.3736 4.80731 18.4956 0.165975 24.8915 0.142375C33.4169 0.110908 41.95 0.142375 50.4753 0.142375L50.4675 0.134508ZM76.1295 3.58011C75.8086 3.56437 75.5581 3.54077 75.3075 3.54077C58.5309 3.54077 41.7543 3.53291 24.9855 3.54864C19.7717 3.54864 14.8162 7.66291 13.6732 12.7762C10.6279 26.4406 7.56691 40.105 4.50593 53.7694C4.12233 55.4844 3.76222 57.1914 4.22411 58.9536C5.09308 62.2418 7.73131 64.2242 11.4499 64.2321C25.4552 64.2557 39.4683 64.2636 53.4737 64.2321C58.7892 64.2164 63.6117 60.165 64.7781 54.9258C66.4847 47.2244 68.207 39.5308 69.9215 31.8293C70.1563 30.7673 70.3755 29.6974 70.6182 28.5332C70.219 28.5332 69.945 28.5332 69.6631 28.5332C67.8156 28.5174 65.9759 28.5017 64.1283 28.4938C55.0629 28.4545 45.9974 28.4152 36.9319 28.3601C36.47 28.3601 36.2273 28.4781 36.1334 28.958C35.9611 29.8626 35.7263 30.7594 35.5541 31.672C34.9434 34.9366 36.517 37.69 39.6641 38.6497C40.8227 39.0037 42.0674 39.0902 43.2808 39.1925C44.2907 39.279 45.3163 39.2082 46.4123 39.2082C46.0365 40.9468 45.692 42.5752 45.3241 44.2036C44.8309 46.4062 44.3847 48.6246 43.7897 50.8037C43.3435 52.4321 42.2083 53.5256 40.4782 53.5649C36.7675 53.6436 33.0489 53.6357 29.3382 53.5649C27.475 53.5334 26.606 52.4714 26.9191 50.6228C27.2792 48.4752 27.7959 46.3433 28.2656 44.2114C30.168 35.5817 32.0782 26.952 33.9727 18.3222C34.6146 15.4037 36.1568 14.1372 39.1474 14.1372C47.9075 14.1529 56.6677 14.1765 65.4201 14.145C69.7727 14.1293 72.9511 12.139 74.7987 8.12704C75.4563 6.70318 75.9025 5.21637 76.1217 3.58011H76.1295Z" fill="#E6212A"/>
<path d="M136.856 18.8807C136.652 19.5415 136.519 20.1237 136.3 20.6743C135.47 22.7826 133.912 23.8367 131.658 23.8446C127.587 23.8446 123.524 23.8446 119.453 23.8446C118.975 23.8446 118.482 23.8997 118.028 24.0413C117.292 24.2773 116.909 24.883 116.744 25.6146C115.601 30.783 114.466 35.9514 113.331 41.1198C113.127 42.0481 113.534 42.6774 114.474 42.701C116.274 42.7561 118.075 42.7561 119.876 42.701C120.721 42.6695 121.277 42.0795 121.473 41.2693C121.895 39.515 122.263 37.745 122.655 35.975C122.663 35.9278 122.639 35.8727 122.631 35.8177C121.754 35.7705 120.878 35.8019 120.024 35.6603C118.075 35.3378 117.167 33.9454 117.558 32.0102C117.825 30.665 117.825 30.6729 119.179 30.6807C123.931 30.7043 128.691 30.7279 133.443 30.7515C133.646 30.7515 133.85 30.7515 134.092 30.7515C134.092 30.8931 134.108 30.9954 134.092 31.0898C133.184 35.1805 132.284 39.279 131.352 43.3697C130.781 45.887 128.518 47.6963 125.943 47.6963C119.312 47.7121 112.681 47.7121 106.05 47.6963C103.514 47.6963 102.05 45.887 102.598 43.3933C104.078 36.6437 105.581 29.8941 107.115 23.1523C107.687 20.635 110.004 18.865 112.564 18.865C120.439 18.865 128.315 18.865 136.183 18.865C136.37 18.865 136.55 18.865 136.84 18.865L136.856 18.8807Z" fill="#342C2B"/>
<path d="M167.168 27.0306C167.254 26.7238 167.325 26.4563 167.395 26.1731C169.415 26.1731 171.427 26.0787 173.423 26.1967C175.435 26.3147 176.656 28.2814 176.186 30.4919C175.09 35.6131 173.971 40.7265 172.859 45.8398C172.515 47.421 172.186 49.0101 171.818 50.5913C171.2 53.2345 169.008 54.973 166.307 54.9887C159.105 55.0202 151.894 55.0438 144.692 55.0753C144.489 55.0753 144.293 55.0753 144.089 55.0753C144.207 52.6523 146.43 50.5913 148.935 50.5834C152.889 50.5677 156.842 50.5834 160.803 50.5834C162.064 50.5834 162.275 50.4182 162.541 49.1989C162.604 48.9235 162.667 48.6561 162.706 48.3729C162.784 47.7829 162.596 47.5469 162.001 47.4761C161.798 47.4525 161.594 47.4603 161.391 47.4603C157.492 47.4603 153.593 47.4682 149.695 47.4603C149.162 47.4603 148.614 47.421 148.098 47.303C147.033 47.0591 146.375 46.3039 146.446 45.2183C146.524 44.0541 146.743 42.8977 146.986 41.7491C147.777 38.0282 148.614 34.323 149.397 30.6021C149.843 28.4702 152.059 25.9922 154.987 26.1338C157.453 26.2518 159.927 26.1574 162.393 26.2833C163.755 26.3541 165.109 26.6766 166.463 26.8811C166.698 26.9205 166.925 26.9677 167.184 27.0149L167.168 27.0306ZM160.146 42.9921C160.576 42.9921 160.999 42.9921 161.43 42.9921C163.097 42.9921 163.997 42.2762 164.365 40.6242C164.671 39.2633 164.96 37.8945 165.25 36.5257C165.524 35.2119 165.845 33.9061 166.056 32.5845C166.252 31.3258 165.602 30.6335 164.342 30.6335C163.301 30.6335 162.259 30.6335 161.218 30.6335C159.786 30.6335 158.658 31.5225 158.322 32.9306C158.102 33.851 157.907 34.7871 157.711 35.7154C157.343 37.4461 156.944 39.1689 156.631 40.9153C156.419 42.1425 157.194 42.9763 158.423 42.9921C159.003 42.9921 159.574 42.9921 160.154 42.9921H160.146Z" fill="#342C2B"/>
<path d="M191.734 47.6491C191.765 47.3974 191.797 47.1614 191.828 46.8546C190.904 47.0198 190.02 47.2322 189.127 47.3266C187.522 47.4997 185.917 47.6413 184.305 47.7121C182.763 47.775 181.22 47.7357 179.678 47.7199C177.001 47.7042 175.49 45.8398 176.03 43.2123C176.406 41.3715 176.789 39.5229 177.189 37.6821C177.791 34.9051 179.31 33.7173 182.215 33.7173C185.894 33.7173 189.566 33.7251 193.245 33.733C193.542 33.733 193.856 33.7566 194.13 33.6701C194.396 33.5914 194.772 33.4341 194.85 33.2217C195.077 32.5609 195.218 31.8607 195.312 31.1685C195.327 31.019 195.022 30.7751 194.819 30.6729C194.654 30.5863 194.419 30.6257 194.216 30.6257C190.411 30.6257 186.599 30.6257 182.794 30.6257C182.348 30.6257 181.901 30.5942 181.463 30.5155C179.827 30.2166 179.075 29.1467 179.302 27.5026C179.428 26.6005 179.939 26.1521 180.837 26.1574C187.632 26.1653 194.435 26.1731 201.23 26.1967C201.708 26.1967 202.201 26.2203 202.671 26.3305C204.502 26.771 205.598 28.5331 205.184 30.4605C203.994 36.0773 202.765 41.6862 201.559 47.2951C201.496 47.5783 201.395 47.7199 201.089 47.7121C198.028 47.7042 194.959 47.6963 191.898 47.6885C191.867 47.6885 191.828 47.6649 191.734 47.6334V47.6491ZM190.309 38.2327V38.217C189.996 38.217 189.675 38.217 189.362 38.217C187.632 38.217 186.497 39.161 186.152 40.8681C185.87 42.2683 186.614 43.2123 188.039 43.2438C188.798 43.2595 189.566 43.2595 190.325 43.2438C192.047 43.2123 193.402 41.8199 193.417 40.0735C193.425 39.0902 192.736 38.3114 191.758 38.2406C191.28 38.2091 190.795 38.2406 190.309 38.2406V38.2327Z" fill="#342C2B"/>
<path d="M132.957 47.5233C134.539 40.3961 136.112 33.2925 137.686 26.181H147.847C147.456 27.9589 147.08 29.6974 146.688 31.4438C145.882 35.0782 145.076 38.7205 144.269 42.3549C143.995 43.5821 143.581 44.7542 142.798 45.7612C142.015 46.7602 140.989 47.4446 139.737 47.4997C137.498 47.5862 135.251 47.5233 132.957 47.5233Z" fill="#342C2B"/>
<path d="M246.542 41.4345C244.123 44.9981 241.179 47.539 236.944 48.2156C235.292 48.483 233.648 48.4044 232.051 47.838C229.155 46.8232 227.072 43.8732 226.986 40.7186C226.806 33.9769 232.247 27.8094 238.94 27.1486C240.342 27.007 241.727 27.0542 243.082 27.4397C245.97 28.25 248.061 30.8224 248.225 33.914C248.296 35.2198 248.084 36.5493 248.006 37.863C247.975 38.3586 247.748 38.516 247.223 38.516C241.673 38.4924 236.122 38.5002 230.572 38.5002C229.687 38.5002 229.695 38.5002 229.64 39.4206C229.577 40.4354 229.624 41.4424 230.024 42.3942C230.979 44.707 232.803 45.7612 235.206 45.8792C238.58 46.0444 241.179 44.534 243.238 41.9694C243.551 41.584 243.849 41.3952 244.342 41.4266C245.023 41.466 245.712 41.4345 246.55 41.4345H246.542ZM245.556 36.329C245.532 35.802 245.524 35.3064 245.485 34.8108C245.282 32.2305 243.904 30.4054 241.673 29.784C240.49 29.4536 239.285 29.3828 238.087 29.5952C234.298 30.256 231.91 32.6081 230.439 36.0537C230.407 36.1324 230.399 36.2268 230.384 36.3369H245.563L245.556 36.329Z" fill="#342C2B"/>
<path d="M226.9 33.7802C226.008 33.7802 225.154 33.7881 224.309 33.7645C224.207 33.7645 224.074 33.615 224.019 33.497C222.383 29.8784 219.338 28.5253 215.58 29.9413C211.767 31.373 209.521 34.2365 208.699 38.2249C208.409 39.6173 208.425 41.0176 208.98 42.3549C209.912 44.589 211.611 45.7848 214.006 45.8792C217.349 46.0208 219.956 44.5733 221.968 41.9616C222.219 41.6312 222.461 41.4738 222.884 41.4896C223.589 41.5289 224.293 41.4974 225.045 41.4974C225.006 41.6154 224.998 41.702 224.951 41.7728C222.86 45.1161 220.019 47.4132 216.081 48.1526C214.57 48.4358 213.051 48.428 211.548 48.0504C208.268 47.2244 205.857 44.2114 205.81 40.7816C205.747 36.3448 207.665 32.8362 211.032 30.075C213.458 28.0848 216.214 26.9834 219.385 27.0621C223.268 27.1644 225.976 29.3906 226.798 33.1509C226.837 33.3318 226.853 33.5128 226.884 33.7724L226.9 33.7802Z" fill="#342C2B"/>
<path d="M144.551 12.729C145.608 12.729 146.665 12.7133 147.722 12.7369C147.933 12.7369 148.199 12.8391 148.348 12.9807C149.037 13.6337 149.718 14.2945 150.344 15.0025C150.532 15.2149 150.658 15.6082 150.603 15.8835C150.18 17.9839 149.718 20.0765 149.241 22.1611C148.998 23.2467 148.27 23.7817 147.158 23.7895C145.428 23.7895 143.706 23.8131 141.976 23.7738C141.6 23.7659 141.154 23.6165 140.872 23.3726C140.081 22.6725 139.353 21.8937 138.609 21.1385C138.194 20.7215 138.077 20.2259 138.21 19.6517C138.609 17.8738 139.001 16.0881 139.4 14.3102C139.619 13.3505 140.379 12.7369 141.365 12.729C142.422 12.7211 143.479 12.729 144.536 12.729H144.551ZM144.035 17.8109C144.003 17.9918 143.98 18.1334 143.948 18.275C143.627 19.7461 143.784 19.6281 142.265 19.6281C141.608 19.6281 141.514 19.5101 141.647 18.865C141.905 17.6614 142.203 16.4657 142.438 15.2621C142.547 14.7114 142.837 14.5226 143.361 14.5305C144.418 14.5462 145.475 14.5462 146.532 14.5305C147.377 14.5147 147.855 14.0191 147.871 13.1774C147.839 13.1617 147.8 13.1381 147.769 13.1381C145.577 13.1381 143.393 13.1223 141.201 13.1381C140.543 13.1381 139.964 13.6415 139.807 14.3102C139.384 16.1274 138.977 17.9446 138.594 19.7618C138.422 20.5642 138.813 21.0205 139.635 21.0283C141.396 21.0362 143.158 21.0362 144.927 21.0283C145.749 21.0283 146.328 20.5327 146.516 19.7303C146.587 19.4235 146.657 19.1167 146.728 18.8021C146.892 18.0154 147.056 17.2209 147.244 16.3319C145.773 16.3319 144.403 16.3319 143.033 16.3477C142.915 16.3477 142.743 16.505 142.704 16.623C142.5 17.2209 142.821 17.7007 143.455 17.7715C143.635 17.7951 143.823 17.7951 144.035 17.8109Z" fill="#E6212A"/>
<path d="M258.872 21.1227H261.408C261.126 22.3421 260.86 23.5299 260.578 24.7178C258.848 32.1597 257.103 39.5937 255.396 47.0434C255.263 47.6334 255.052 47.8458 254.457 47.7829C253.893 47.7278 253.314 47.7671 252.672 47.7671C254.746 38.8385 256.805 29.9885 258.872 21.1149V21.1227Z" fill="#342C2B"/>
<path d="M247.317 47.775C249.399 38.8385 251.458 29.9885 253.517 21.1306H256.054C255.67 22.8062 255.286 24.4503 254.903 26.0945C253.274 33.0801 251.646 40.0657 250.041 47.0513C249.916 47.5862 249.752 47.8537 249.149 47.7829C248.585 47.7199 248.006 47.7671 247.325 47.7671L247.317 47.775Z" fill="#342C2B"/>
<path d="M159.504 40.6242C159.034 40.6242 158.564 40.6242 158.087 40.6242C157.077 40.6085 156.443 39.932 156.623 38.9486C156.873 37.5405 157.202 36.1481 157.508 34.7478C157.672 33.9926 157.821 33.2453 158.009 32.498C158.29 31.3573 159.214 30.6414 160.381 30.6414C161.234 30.6414 162.087 30.6414 162.933 30.6414C163.966 30.6414 164.498 31.2 164.342 32.2226C164.17 33.2925 163.911 34.3466 163.684 35.4086C163.449 36.5178 163.215 37.6191 162.964 38.7205C162.659 40.0578 161.931 40.6321 160.561 40.6321C160.208 40.6321 159.864 40.6321 159.512 40.6321L159.504 40.6242Z" fill="white"/>
<path d="M190.309 38.2328C190.795 38.2328 191.28 38.2013 191.758 38.2328C192.736 38.3036 193.425 39.0824 193.417 40.0657C193.402 41.8121 192.047 43.2045 190.325 43.236C189.566 43.2517 188.798 43.2517 188.039 43.236C186.614 43.2045 185.87 42.2605 186.152 40.8602C186.497 39.1532 187.624 38.217 189.362 38.2092C189.675 38.2092 189.996 38.2092 190.309 38.2092V38.2249V38.2328Z" fill="white"/>
<path d="M245.555 36.329H230.376C230.399 36.2189 230.399 36.1245 230.431 36.0458C231.902 32.6002 234.29 30.2481 238.079 29.5873C239.277 29.3749 240.49 29.4457 241.665 29.7761C243.896 30.3976 245.274 32.2226 245.477 34.8029C245.516 35.2985 245.524 35.7941 245.548 36.3212L245.555 36.329Z" fill="white"/>
<path d="M144.035 17.8109C143.815 17.7952 143.635 17.7952 143.455 17.7716C142.821 17.7008 142.5 17.2209 142.704 16.623C142.743 16.505 142.915 16.3556 143.033 16.3477C144.403 16.332 145.773 16.332 147.244 16.332C147.056 17.2209 146.892 18.0076 146.728 18.8021C146.665 19.1089 146.587 19.4236 146.516 19.7304C146.328 20.5328 145.749 21.0205 144.927 21.0284C143.166 21.0362 141.404 21.0362 139.635 21.0284C138.813 21.0284 138.429 20.5642 138.594 19.7618C138.977 17.9368 139.392 16.1274 139.807 14.3102C139.964 13.6416 140.543 13.1381 141.201 13.1381C143.393 13.1224 145.577 13.1381 147.769 13.1381C147.8 13.1381 147.839 13.1617 147.871 13.1774C147.855 14.0113 147.377 14.5148 146.532 14.5305C145.475 14.5462 144.418 14.5462 143.361 14.5305C142.837 14.5226 142.547 14.7193 142.438 15.2621C142.195 16.4657 141.905 17.6614 141.647 18.865C141.506 19.5101 141.608 19.6281 142.265 19.6281C143.776 19.6281 143.628 19.7461 143.949 18.275C143.98 18.1334 144.003 17.9918 144.035 17.8109Z" fill="white"/>
</svg>
