<svg width="256" height="79" viewBox="0 0 256 79" fill="none" xmlns="http://www.w3.org/2000/svg">
<path d="M177.895 39.5163C177.895 27.3535 177.923 15.1907 177.867 3.04213C177.867 0.950986 178.986 0.154358 180.785 0.154358C204.953 0.197034 229.122 0.197034 253.29 0.154358C254.891 0.154358 255.996 1.10747 255.982 2.87143C255.911 12.7866 255.953 22.716 255.939 32.6312C255.939 35.8035 255.812 38.9758 255.812 42.148C255.84 53.6849 255.897 65.2218 255.939 76.7729C255.939 78.1101 255.174 78.8783 253.871 78.921C253.672 78.921 253.488 78.921 253.29 78.921C229.065 78.921 204.826 78.921 180.601 78.921C178.547 78.921 177.909 78.2808 177.909 76.1897C177.909 63.97 177.909 51.736 177.909 39.5163H177.895ZM255.387 39.6159C255.287 38.0369 255.217 36.4578 255.103 34.893C254.806 30.9241 253.616 27.197 251.987 23.6122C249.422 18.0074 245.739 13.2418 240.88 9.44361C237.848 7.06795 234.562 5.14751 230.977 3.71073C228.102 2.54424 225.127 1.74761 222.081 1.27817C220.31 1.00789 218.412 0.794506 216.669 1.10747C211.64 2.00367 207.999 4.87723 206.172 9.74235C204.684 13.697 205.123 17.4668 207.418 21.0943C209.132 23.8114 210.747 26.6422 212.079 29.5727C214.374 34.637 214.842 39.9431 213.51 45.4199C212.462 49.716 210.436 53.5427 208.042 57.1702C206.469 59.5316 205.293 61.9642 205.322 64.8946C205.35 67.3983 206.016 69.7171 207.305 71.8082C208.778 74.2123 210.804 76.0332 213.439 77.1285C216.216 78.295 219.007 78.3804 221.967 77.8825C226.104 77.1997 230.071 76.0474 233.797 74.1696C239.01 71.5522 243.557 68.0954 247.142 63.4294C249.918 59.8161 252.157 55.8899 253.545 51.5226C254.792 47.6533 255.528 43.6986 255.372 39.6159H255.387ZM206.115 2.75762C205.789 2.82875 205.662 2.82875 205.548 2.87143C200.647 4.47891 196.212 6.93992 192.288 10.3114C188.704 13.3983 185.644 16.912 183.349 21.0658C180.048 27.069 178.277 33.4705 178.561 40.3841C178.646 42.6033 180.204 44.5806 182.372 44.9078C184.114 45.1781 186.494 44.1965 187.018 41.7924C187.387 40.1138 187.472 38.3783 187.613 36.657C187.953 32.6881 189.087 28.9752 190.985 25.4757C193.266 21.2792 196.354 17.8082 200.307 15.1907C201.695 14.2661 202.757 13.3983 202.375 11.549C202.318 11.2645 202.502 10.9231 202.545 10.6101C202.899 8.00683 203.862 5.68808 205.534 3.65383C205.718 3.42622 205.846 3.15594 206.101 2.7434L206.115 2.75762ZM186.126 57.9668C188.449 58.1233 190.574 55.8899 190.702 53.4431C190.815 51.2808 188.307 48.9052 186.083 48.9336C183.689 48.9621 181.465 51.1528 181.479 53.4573C181.507 55.8614 183.661 58.0806 186.126 57.9526V57.9668ZM196.737 64.0269C196.737 62.0068 194.867 60.1717 192.798 60.1717C190.829 60.1717 188.846 62.078 188.846 63.9984C188.846 66.5448 190.772 67.9958 192.756 68.0242C194.81 68.0527 196.737 66.6301 196.722 64.0411L196.737 64.0269ZM203.14 71.4952C203.423 70.1581 201.737 68.6644 200.462 68.7213C199.003 68.7782 197.785 69.9304 197.771 71.3814C197.757 72.8467 199.003 74.0985 200.519 74.1127C201.907 74.127 203.126 72.9036 203.14 71.4952Z" fill="black"/>
<path d="M110.207 70.7413V59.8161C110.617 59.8161 110.986 59.8161 111.368 59.8161C118.962 59.8161 126.555 59.8161 134.148 59.8161C138.979 59.8161 143.172 56.8999 144.787 52.3762C145.198 51.2381 145.425 49.9863 145.425 48.7771C145.496 42.774 145.453 36.785 145.453 30.7819C145.453 25.1201 141.543 20.4968 135.976 19.6148C132.533 19.0743 129.218 19.4157 126.201 21.3361C123.155 23.2708 121.512 26.1301 121.313 29.7007C121.157 32.3467 121.285 35.0068 121.285 37.7808H140.226V48.7344H110.164V47.5679C110.164 41.6359 110.235 35.7039 110.15 29.7718C110.022 20.6106 115.434 13.1422 123.693 10.1407C132.335 6.99682 140.679 7.72232 148.244 13.2276C153.712 17.225 156.56 22.7302 156.574 29.6011C156.574 36.3725 156.602 43.158 156.574 49.9294C156.546 55.6196 154.562 60.5701 150.567 64.6101C146.601 68.6217 141.756 70.7413 136.103 70.784C127.802 70.8266 119.5 70.784 111.198 70.784C110.915 70.784 110.632 70.7555 110.235 70.7413H110.207Z" fill="black"/>
<path d="M65.015 59.8161C65.4825 59.8161 65.865 59.8161 66.2475 59.8161C71.5458 59.8161 76.8442 59.8161 82.1425 59.8161C88.2342 59.8161 92.5975 56.2597 93.8017 50.2992C93.915 49.7587 93.9292 49.2039 93.9292 48.6633C93.9292 39.1891 93.9292 29.7292 93.9292 20.255C93.9292 20.0274 93.9008 19.814 93.8867 19.4868H65.0292V8.47626H104.993C104.993 8.84612 104.993 9.18753 104.993 9.52895C104.993 23.1854 104.993 36.8277 104.993 50.4842C104.993 59.9157 97.6692 68.6928 88.4042 70.3714C86.9875 70.6275 85.5283 70.7555 84.0833 70.7697C78.105 70.8124 72.1267 70.784 66.1483 70.784H65.0292V59.8161H65.015Z" fill="black"/>
<path d="M43.4958 59.8161V70.7413C43.1416 70.7555 42.8016 70.784 42.4616 70.784C35.1941 70.784 27.9266 70.7982 20.6591 70.784C10.7141 70.7555 2.22831 63.657 0.414972 53.8414C0.188306 52.6038 0.0608055 51.3377 0.0466388 50.0859C0.0183055 36.6286 0.0324725 23.1712 0.0324725 9.71392V8.3625C0.485806 8.3625 0.839972 8.3625 1.17997 8.3625C4.08414 8.3625 7.00247 8.39095 9.90664 8.34827C10.8133 8.33405 11.0966 8.56166 11.0966 9.52899C11.0683 22.3319 11.0825 35.1491 11.0683 47.9521C11.0683 52.8741 13.1083 56.6154 17.5991 58.6923C19.1008 59.3894 20.8858 59.745 22.5433 59.7735C29.1025 59.8873 35.6616 59.8161 42.2208 59.8161C42.6033 59.8161 42.9858 59.8161 43.4816 59.8161H43.4958Z" fill="black"/>
<path d="M161.759 70.7413V8.49052C161.943 8.44784 162.099 8.37671 162.255 8.37671C165.513 8.37671 168.786 8.37671 172.044 8.36249C172.526 8.36249 172.781 8.50474 172.738 9.03109C172.724 9.23024 172.738 9.41517 172.738 9.61433C172.738 29.5585 172.738 49.5026 172.738 69.4468V70.7271H161.759V70.7413Z" fill="black"/>
<path d="M48.7658 70.7697V8.5047H59.7166C59.7308 8.76076 59.7733 9.01682 59.7733 9.25865C59.7733 29.4304 59.7732 49.6022 59.7874 69.7739C59.7874 70.5137 59.6458 70.7982 58.8383 70.7839C55.5091 70.7413 52.1941 70.7697 48.7516 70.7697H48.7658Z" fill="black"/>
<path d="M43.5383 22.0332C43.5383 29.5727 37.4608 35.7465 30.0233 35.7465C22.3874 35.7465 16.2958 29.658 16.2958 22.0332C16.2958 14.4652 22.4016 8.36245 29.9808 8.37667C37.4608 8.37667 43.5383 14.4936 43.5383 22.0474V22.0332Z" fill="black"/>
<path d="M255.387 39.6159C255.542 43.7128 254.806 47.6675 253.559 51.5226C252.157 55.8899 249.932 59.8019 247.156 63.4294C243.572 68.0954 239.01 71.5521 233.811 74.1696C230.071 76.0474 226.118 77.1997 221.982 77.8825C219.021 78.3662 216.23 78.2808 213.453 77.1285C210.818 76.019 208.792 74.2123 207.319 71.8082C206.03 69.7028 205.364 67.3841 205.336 64.8946C205.307 61.9784 206.483 59.5458 208.056 57.1702C210.464 53.5427 212.476 49.716 213.524 45.4199C214.856 39.9573 214.388 34.6512 212.093 29.5727C210.762 26.6422 209.161 23.8114 207.432 21.0943C205.137 17.4526 204.698 13.6828 206.186 9.74234C208.013 4.87722 211.654 2.01789 216.683 1.10746C218.426 0.794501 220.31 1.00788 222.095 1.27817C225.141 1.74761 228.116 2.54424 230.992 3.71073C234.576 5.16173 237.862 7.08217 240.894 9.44361C245.767 13.2418 249.437 18.0074 252.001 23.6122C253.63 27.197 254.82 30.9241 255.117 34.893C255.231 36.4721 255.302 38.0369 255.401 39.6159H255.387ZM246.405 39.6443C246.32 38.0369 246.405 36.3867 246.107 34.8219C245.158 29.9568 243.373 25.4473 240.271 21.4784C237.423 17.8651 234.066 14.892 229.943 12.9573C227.436 11.7766 224.73 10.98 222.052 10.2687C220.65 9.89882 219.077 9.85614 217.632 10.0553C215.408 10.3683 213.992 13.0427 214.757 15.148C215.082 16.0727 215.635 16.912 216.06 17.8082C217.675 21.2792 219.332 24.736 220.862 28.2355C222.902 32.9015 223.682 37.7666 223.072 42.8593C222.647 46.4157 221.514 49.7445 220.055 52.9736C218.468 56.4589 216.697 59.873 215.026 63.3298C214.785 63.8419 214.615 64.3967 214.53 64.9515C214.19 67.3841 217.165 69.774 219.885 69.3045C223.852 68.6217 227.592 67.5406 231.105 65.5917C236.276 62.7181 240.285 58.6923 243.019 53.4715C245.272 49.1754 246.532 44.5664 246.419 39.6443H246.405Z" fill="white"/>
<path d="M206.101 2.75763C205.846 3.17017 205.718 3.44045 205.534 3.66806C203.863 5.68808 202.899 8.02106 202.545 10.6243C202.503 10.9373 202.318 11.2787 202.375 11.5632C202.758 13.4125 201.695 14.2803 200.307 15.2049C196.354 17.8367 193.266 21.3077 190.985 25.49C189.087 28.9895 187.939 32.7023 187.613 36.6712C187.472 38.3925 187.387 40.128 187.018 41.8066C186.494 44.2107 184.114 45.1923 182.372 44.922C180.204 44.5948 178.66 42.6175 178.561 40.3983C178.278 33.4847 180.048 27.0832 183.349 21.0801C185.63 16.9262 188.69 13.4125 192.288 10.3256C196.227 6.93993 200.647 4.47892 205.548 2.88566C205.662 2.84298 205.775 2.84298 206.115 2.77186L206.101 2.75763Z" fill="white"/>
<path d="M186.126 57.9668C183.661 58.0948 181.507 55.8614 181.479 53.4715C181.451 51.167 183.689 48.9905 186.083 48.9478C188.322 48.9194 190.815 51.295 190.702 53.4573C190.574 55.8899 188.449 58.1375 186.126 57.981V57.9668Z" fill="white"/>
<path d="M196.737 64.0411C196.737 66.6301 194.81 68.0527 192.77 68.0242C190.787 67.9958 188.874 66.5448 188.86 63.9984C188.86 62.078 190.843 60.1718 192.812 60.1718C194.881 60.1718 196.751 62.0068 196.751 64.0269L196.737 64.0411Z" fill="white"/>
<path d="M203.14 71.4953C203.14 72.9036 201.908 74.127 200.519 74.1128C199.003 74.0985 197.757 72.8467 197.771 71.3815C197.785 69.9305 199.018 68.764 200.463 68.7213C201.738 68.6786 203.423 70.1723 203.14 71.4953Z" fill="white"/>
<path d="M246.391 39.6443C246.504 44.5664 245.243 49.1754 242.991 53.4715C240.257 58.6923 236.247 62.7181 231.077 65.5916C227.549 67.5405 223.809 68.6217 219.857 69.3045C217.137 69.7739 214.162 67.3841 214.502 64.9515C214.572 64.3967 214.757 63.8277 214.997 63.3298C216.655 59.873 218.426 56.4589 220.027 52.9736C221.5 49.7587 222.619 46.4157 223.044 42.8593C223.667 37.7666 222.874 32.9014 220.834 28.2355C219.304 24.7218 217.647 21.2792 216.032 17.8082C215.621 16.912 215.068 16.0727 214.728 15.148C213.963 13.0284 215.394 10.3683 217.604 10.0553C219.049 9.84191 220.622 9.89881 222.024 10.2687C224.702 10.98 227.422 11.7766 229.915 12.9573C234.037 14.9062 237.409 17.8651 240.242 21.4784C243.359 25.4473 245.144 29.9425 246.079 34.8219C246.377 36.3867 246.292 38.0369 246.377 39.6443H246.391Z" fill="black"/>
</svg>
