<svg width="114" height="104" viewBox="0 0 114 104" fill="none" xmlns="http://www.w3.org/2000/svg">
<path d="M31.4709 50.992C28.8846 47.38 25.2137 47.632 25.2137 47.632H0.936035V82.24H7.19318V68.044C7.19318 68.044 20.0412 68.044 25.3806 68.044C30.136 68.128 32.0549 63.508 32.0549 63.508C32.0549 63.508 32.8057 62.416 32.7223 57.712C32.6389 55.36 32.9726 53.176 31.4709 50.992ZM26.5486 57.544C26.5486 59.056 26.3817 60.316 26.3817 60.316C26.3817 60.316 25.8812 62.668 23.6286 62.668C20.8755 62.752 7.10974 62.668 7.10974 62.668V52.924H23.712C23.712 52.924 25.6309 53.008 26.3817 55.192C26.632 55.864 26.5486 56.788 26.5486 57.544Z" fill="#010101"/>
<path d="M55.0811 69.808L42.8171 47.8H36.3097V82.24H41.232C41.232 82.24 41.3154 72.916 41.3988 68.968C41.3988 66.028 40.8983 55.1921 40.8983 55.1921C40.8983 55.1921 54.7474 77.368 55.1646 78.04C56.0823 77.116 69.3474 55.108 69.3474 55.108C69.3474 55.108 69.0137 66.364 68.9303 68.6321C68.8468 70.9001 68.8468 82.24 68.8468 82.24H73.8526V47.8H67.3451L55.0811 69.808Z" fill="#010101"/>
<path d="M113.064 54.184C113.064 54.184 112.814 52 111.229 50.068C110.227 48.892 107.808 47.548 105.973 47.548C103.303 47.548 100.299 47.548 97.2126 47.548C92.4572 47.548 88.2857 47.548 88.2857 47.548C88.2857 47.548 86.2835 47.716 84.3646 49.06C82.7795 50.236 81.3612 52.252 81.4446 55.192C81.4446 64.852 81.4446 76.276 81.4446 76.276C81.4446 76.276 81.2777 78.376 83.5303 80.896C84.5315 82.072 86.1166 82.996 88.536 83.08C95.1269 83.248 106.64 83.08 106.64 83.08C106.64 83.08 112.23 82.408 113.147 76.612V72.58L107.558 70.396V74.344C107.558 74.344 107.391 77.872 103.47 77.872C99.2983 77.872 90.2046 77.872 90.2046 77.872C90.2046 77.872 88.3692 77.872 87.368 75.856C86.8675 74.932 86.9509 74.092 86.8675 71.992C86.8675 66.196 86.8675 56.368 86.8675 56.368C86.8675 56.368 87.1178 52.84 90.872 52.84C98.8812 52.84 104.221 52.924 104.221 52.924C104.221 52.924 107.391 53.344 107.474 56.536C107.474 59.728 107.474 60.484 107.474 60.484L112.981 59.224V54.184H113.064Z" fill="#010101"/>
<path d="M38.9795 14.2L24.7966 10.252L52.9121 58.552L38.9795 14.2Z" fill="#213A71"/>
<path d="M52.9121 0.00402832L42.3167 9.24403L54.7475 58.888L52.9121 0.00402832Z" fill="#213A71"/>
<path d="M85.6994 10.336L71.5166 14.284L57.584 58.552L85.6994 10.336Z" fill="#213A71"/>
<path d="M113.064 86.608H0.936035V89.296H113.064V86.608Z" fill="#010101"/>
<path d="M57.5841 0.0880127L55.7487 58.972L68.1795 9.24401L57.5841 0.0880127Z" fill="#213A71"/>
<path d="M1.68689 101.896V94.84H4.44004C4.94061 94.84 5.27432 94.84 5.52461 94.924C5.85832 95.008 6.19204 95.092 6.44232 95.26C6.69261 95.428 6.85946 95.68 7.02632 95.932C7.19318 96.184 7.27661 96.52 7.27661 96.856C7.27661 97.444 7.10975 97.948 6.6926 98.368C6.27546 98.788 5.60803 98.956 4.60689 98.956H2.77146V101.812H1.68689V101.896ZM2.68804 98.2H4.52346C5.10746 98.2 5.60803 98.116 5.85832 97.864C6.1086 97.612 6.27546 97.36 6.27546 96.94C6.27546 96.604 6.19204 96.352 6.02518 96.184C5.85832 95.932 5.69146 95.848 5.44118 95.764C5.27432 95.764 5.02403 95.68 4.52346 95.68H2.68804V98.2Z" fill="#010101"/>
<path d="M11.6983 101.224C11.3645 101.476 11.0308 101.728 10.7805 101.812C10.4468 101.896 10.1131 101.98 9.7794 101.98C9.1954 101.98 8.77826 101.812 8.44455 101.56C8.11083 101.308 7.94397 100.972 7.94397 100.468C7.94397 100.216 8.0274 99.964 8.11083 99.796C8.19426 99.628 8.36112 99.46 8.52797 99.292C8.69483 99.208 8.94511 99.04 9.1954 99.04C9.36226 98.956 9.61254 98.956 9.94626 98.872C10.6971 98.788 11.1977 98.704 11.5314 98.536C11.5314 98.452 11.5314 98.368 11.5314 98.284C11.5314 97.948 11.448 97.696 11.2811 97.528C11.0308 97.36 10.6971 97.192 10.28 97.192C9.86283 97.192 9.52912 97.276 9.36226 97.444C9.1954 97.612 9.02854 97.864 8.94512 98.2L8.11083 98.116C8.19426 97.78 8.27769 97.444 8.52797 97.276C8.69483 97.024 8.94512 96.856 9.27883 96.772C9.61255 96.688 10.0297 96.604 10.4468 96.604C10.864 96.604 11.2811 96.688 11.5314 96.772C11.7817 96.856 12.032 97.024 12.1154 97.192C12.2823 97.36 12.3657 97.528 12.3657 97.78C12.3657 97.948 12.4491 98.2 12.4491 98.62V99.796C12.4491 100.636 12.4491 101.14 12.5325 101.308C12.5325 101.56 12.616 101.728 12.7828 101.896H11.8651C11.7817 101.728 11.6983 101.476 11.6983 101.224ZM11.6148 99.292C11.2811 99.46 10.7805 99.544 10.1965 99.628C9.86283 99.712 9.61254 99.712 9.44569 99.796C9.27883 99.88 9.1954 99.964 9.11197 100.048C9.02854 100.132 9.02854 100.3 9.02854 100.468C9.02854 100.72 9.11197 100.888 9.27883 101.056C9.44569 101.224 9.69597 101.308 10.0297 101.308C10.3634 101.308 10.6971 101.224 10.9474 101.056C11.1977 100.888 11.448 100.72 11.5314 100.468C11.6148 100.3 11.6983 99.964 11.6983 99.628V99.292H11.6148Z" fill="#010101"/>
<path d="M13.8674 101.896V96.772H14.7017V97.528C14.8686 97.192 15.1189 96.94 15.2857 96.772C15.4526 96.688 15.6194 96.604 15.8697 96.604C16.2034 96.604 16.4537 96.688 16.7874 96.856L16.4537 97.696C16.2034 97.612 16.0366 97.528 15.7863 97.528C15.6194 97.528 15.4526 97.612 15.2857 97.696C15.1189 97.78 15.0354 97.948 14.952 98.2C14.8686 98.536 14.7851 98.872 14.7851 99.208V101.896H13.8674Z" fill="#010101"/>
<path d="M16.8708 100.384L17.7051 100.216C17.7886 100.552 17.872 100.804 18.1223 100.972C18.3726 101.14 18.6228 101.224 19.04 101.224C19.4571 101.224 19.7074 101.14 19.9577 100.972C20.208 100.804 20.2914 100.636 20.2914 100.384C20.2914 100.216 20.208 100.048 20.0411 99.88C19.9577 99.796 19.624 99.712 19.1234 99.544C18.456 99.376 18.0388 99.208 17.7886 99.124C17.5383 99.04 17.3714 98.872 17.2046 98.62C17.0377 98.452 17.0377 98.2 17.0377 97.948C17.0377 97.696 17.1211 97.528 17.2046 97.276C17.288 97.108 17.4549 96.94 17.6217 96.772C17.7886 96.688 17.9554 96.604 18.2057 96.52C18.456 96.436 18.7063 96.436 18.9566 96.436C19.3737 96.436 19.7074 96.52 20.0411 96.604C20.3748 96.688 20.5417 96.856 20.7086 97.108C20.8754 97.276 20.9588 97.612 21.0423 97.864L20.208 97.948C20.208 97.696 20.0411 97.444 19.8743 97.36C19.7074 97.192 19.4571 97.108 19.04 97.108C18.6228 97.108 18.3726 97.192 18.2057 97.276C18.0388 97.444 17.9554 97.528 17.9554 97.78C17.9554 97.864 17.9554 98.032 18.0389 98.116C18.1223 98.2 18.2057 98.284 18.3726 98.368C18.456 98.368 18.7063 98.452 19.1234 98.62C19.7074 98.788 20.208 98.956 20.4583 99.04C20.7086 99.124 20.8754 99.292 21.0423 99.46C21.2091 99.628 21.2926 99.88 21.2926 100.216C21.2926 100.468 21.2091 100.804 21.0423 101.056C20.8754 101.308 20.6251 101.476 20.2914 101.644C19.9577 101.812 19.624 101.896 19.2068 101.896C18.5394 101.896 18.0389 101.728 17.6217 101.476C17.2046 101.308 16.9543 100.888 16.8708 100.384Z" fill="#010101"/>
<path d="M22.2937 94.84H23.2114V95.848H22.2937V94.84ZM22.2937 96.772H23.2114V101.896H22.2937V96.772Z" fill="#010101"/>
<path d="M27.8834 101.224C27.5497 101.476 27.216 101.728 26.9657 101.812C26.632 101.896 26.2983 101.98 25.9646 101.98C25.3806 101.98 24.9634 101.812 24.6297 101.56C24.296 101.308 24.1292 100.972 24.1292 100.468C24.1292 100.216 24.2126 99.964 24.296 99.796C24.3794 99.628 24.5463 99.46 24.7131 99.292C24.88 99.208 25.1303 99.04 25.3806 99.04C25.5474 98.956 25.7977 98.956 26.1314 98.872C26.8823 98.788 27.3829 98.704 27.7166 98.536C27.7166 98.452 27.7166 98.368 27.7166 98.284C27.7166 97.948 27.6332 97.696 27.4663 97.528C27.216 97.36 26.8823 97.192 26.4651 97.192C26.048 97.192 25.7143 97.276 25.5474 97.444C25.3806 97.612 25.2137 97.864 25.1303 98.2L24.296 98.116C24.3794 97.78 24.4629 97.444 24.7131 97.276C24.88 97.024 25.1303 96.856 25.464 96.772C25.7977 96.688 26.2149 96.604 26.632 96.604C27.0492 96.604 27.4663 96.688 27.7166 96.772C27.9669 96.856 28.2172 97.024 28.3006 97.192C28.4674 97.36 28.5509 97.528 28.5509 97.78C28.5509 97.948 28.6343 98.2 28.6343 98.62V99.796C28.6343 100.636 28.6343 101.14 28.7177 101.308C28.7177 101.56 28.8011 101.728 28.968 101.896H28.0503C27.9669 101.728 27.8834 101.476 27.8834 101.224ZM27.8 99.292C27.4663 99.46 26.9657 99.544 26.3817 99.628C26.048 99.712 25.7977 99.712 25.6309 99.796C25.464 99.88 25.3806 99.964 25.2971 100.048C25.2137 100.132 25.2137 100.3 25.2137 100.468C25.2137 100.72 25.2971 100.888 25.464 101.056C25.6309 101.224 25.8812 101.308 26.2149 101.308C26.5486 101.308 26.8823 101.224 27.1326 101.056C27.3829 100.888 27.6331 100.72 27.7166 100.468C27.8 100.3 27.8834 99.964 27.8834 99.628V99.292H27.8Z" fill="#010101"/>
<path d="M30.0526 101.896V96.7721H30.8869V97.528C31.304 96.94 31.8046 96.688 32.5555 96.688C32.8892 96.688 33.1395 96.772 33.3898 96.856C33.64 96.94 33.8903 97.108 33.9738 97.276C34.1406 97.444 34.224 97.696 34.224 97.948C34.224 98.116 34.3075 98.368 34.3075 98.788V101.98H33.3898V98.8721C33.3898 98.5361 33.3898 98.284 33.3063 98.116C33.2229 97.948 33.1395 97.78 32.9726 97.696C32.8058 97.612 32.5555 97.528 32.3886 97.528C31.9715 97.528 31.7212 97.6121 31.3875 97.8641C31.1372 98.1161 30.9703 98.536 30.9703 99.208V101.98H30.0526V101.896Z" fill="#010101"/>
<path d="M38.5623 101.896V94.84H39.9806L41.6491 99.88C41.816 100.384 41.8994 100.72 41.9828 100.888C42.0663 100.636 42.2331 100.216 42.4 99.712L44.152 94.756H45.4034V101.812H44.4857V95.848L42.4 101.812H41.5657L39.48 95.764V101.812H38.5623V101.896Z" fill="#010101"/>
<path d="M46.488 99.292C46.488 98.368 46.7383 97.612 47.3223 97.192C47.7395 96.772 48.3235 96.604 48.9909 96.604C49.7418 96.604 50.3258 96.856 50.7429 97.276C51.16 97.78 51.4103 98.368 51.4103 99.208C51.4103 99.88 51.3269 100.384 51.0766 100.804C50.9098 101.224 50.576 101.476 50.1589 101.644C49.7418 101.812 49.3246 101.98 48.9075 101.98C48.1566 101.98 47.5726 101.728 47.1555 101.308C46.7383 100.888 46.488 100.216 46.488 99.292ZM47.4058 99.292C47.4058 99.964 47.5726 100.468 47.8229 100.804C48.0732 101.14 48.4903 101.308 48.9075 101.308C49.3246 101.308 49.7418 101.14 49.992 100.804C50.2423 100.468 50.4092 99.964 50.4092 99.292C50.4092 98.62 50.2423 98.2 49.992 97.864C49.6583 97.528 49.3246 97.36 48.9075 97.36C48.4903 97.36 48.0732 97.528 47.8229 97.864C47.5726 98.2 47.4058 98.704 47.4058 99.292Z" fill="#010101"/>
<path d="M53.2458 101.896H52.4115V94.84H53.3292V97.36C53.6629 96.94 54.1635 96.688 54.7475 96.688C55.0812 96.688 55.3315 96.772 55.6652 96.856C55.9155 97.024 56.1658 97.192 56.3326 97.36C56.4995 97.612 56.6664 97.864 56.7498 98.2C56.8332 98.536 56.9166 98.872 56.9166 99.208C56.9166 100.048 56.6664 100.804 56.2492 101.224C55.8321 101.728 55.2481 101.98 54.6641 101.98C54.0801 101.98 53.5795 101.728 53.2458 101.224V101.896ZM53.2458 99.292C53.2458 99.88 53.3292 100.384 53.4961 100.636C53.7464 101.056 54.1635 101.308 54.6641 101.308C55.0812 101.308 55.4149 101.14 55.6652 100.804C55.9155 100.468 56.0824 99.964 56.0824 99.292C56.0824 98.62 55.9155 98.116 55.6652 97.78C55.4149 97.444 55.0812 97.276 54.6641 97.276C54.2469 97.276 53.9132 97.444 53.6629 97.78C53.3292 98.2 53.2458 98.62 53.2458 99.292Z" fill="#010101"/>
<path d="M58.0012 94.84H58.9189V95.848H58.0012V94.84ZM58.0012 96.772H58.9189V101.896H58.0012V96.772Z" fill="#010101"/>
<path d="M61.088 94.84H60.1703V101.896H61.088V94.84Z" fill="#010101"/>
<path d="M66.0104 100.216L66.9281 100.3C66.7612 100.804 66.5109 101.224 66.0938 101.56C65.6767 101.812 65.1761 101.98 64.5921 101.98C63.8412 101.98 63.2572 101.728 62.7567 101.308C62.3395 100.804 62.0892 100.216 62.0892 99.376C62.0892 98.536 62.3395 97.864 62.7567 97.36C63.1738 96.856 63.7578 96.604 64.5087 96.604C65.1761 96.604 65.7601 96.856 66.1772 97.276C66.5944 97.78 66.8447 98.368 66.8447 99.208C66.8447 99.292 66.8447 99.376 66.8447 99.46H62.9235C62.9235 100.048 63.0904 100.468 63.4241 100.72C63.6744 101.056 64.0915 101.14 64.5087 101.14C64.8424 101.14 65.0927 101.056 65.3429 100.888C65.6767 100.888 65.8435 100.636 66.0104 100.216ZM63.0904 98.872H66.0104C66.0104 98.452 65.8435 98.116 65.6767 97.864C65.4264 97.528 65.0092 97.36 64.5921 97.36C64.1749 97.36 63.8412 97.528 63.5909 97.78C63.2572 98.032 63.1738 98.368 63.0904 98.872Z" fill="#010101"/>
<path d="M76.1052 99.376L77.0229 99.628C76.856 100.384 76.4389 100.972 75.9383 101.392C75.4377 101.812 74.7703 101.98 74.0194 101.98C73.2686 101.98 72.6012 101.812 72.1006 101.476C71.6 101.14 71.2663 100.72 71.016 100.132C70.7657 99.544 70.5989 98.872 70.5989 98.2C70.5989 97.444 70.7657 96.856 71.016 96.268C71.2663 95.68 71.6834 95.344 72.2674 95.008C72.768 94.756 73.352 94.588 74.0194 94.588C74.7703 94.588 75.3543 94.756 75.8549 95.092C76.3555 95.428 76.6892 95.932 76.856 96.604L75.9383 96.856C75.7714 96.352 75.5212 95.932 75.1874 95.764C74.8537 95.512 74.4366 95.428 74.0194 95.428C73.4354 95.428 73.0183 95.596 72.6012 95.848C72.2674 96.1 71.9337 96.436 71.8503 96.94C71.6834 97.36 71.6 97.864 71.6 98.284C71.6 98.872 71.6834 99.376 71.8503 99.88C72.0172 100.3 72.2674 100.636 72.6846 100.888C73.1017 101.14 73.4354 101.224 73.936 101.224C74.4366 101.224 74.9372 101.056 75.2709 100.804C75.688 100.468 75.9383 99.964 76.1052 99.376Z" fill="#010101"/>
<path d="M77.7737 99.292C77.7737 98.368 78.024 97.612 78.608 97.192C79.0252 96.772 79.6092 96.604 80.2766 96.604C81.0275 96.604 81.6115 96.856 82.0286 97.276C82.4457 97.78 82.696 98.368 82.696 99.208C82.696 99.88 82.6126 100.384 82.3623 100.804C82.1955 101.224 81.8618 101.476 81.4446 101.644C81.0275 101.812 80.6103 101.98 80.1932 101.98C79.4423 101.98 78.8583 101.728 78.4412 101.308C77.9406 100.888 77.7737 100.216 77.7737 99.292ZM78.6915 99.292C78.6915 99.964 78.8583 100.468 79.1086 100.804C79.3589 101.14 79.776 101.308 80.1932 101.308C80.6103 101.308 81.0275 101.14 81.2778 100.804C81.528 100.468 81.6949 99.964 81.6949 99.292C81.6949 98.62 81.528 98.2 81.2778 97.864C80.944 97.528 80.6103 97.36 80.1932 97.36C79.776 97.36 79.3589 97.528 79.1086 97.864C78.7749 98.2 78.6915 98.704 78.6915 99.292Z" fill="#010101"/>
<path d="M83.6971 101.896V96.7721H84.448V97.528C84.6149 97.276 84.8651 97.1081 85.1154 96.9401C85.3657 96.7721 85.6994 96.688 86.0331 96.688C86.4503 96.688 86.7006 96.7721 86.9509 96.9401C87.2011 97.1081 87.368 97.3601 87.4514 97.6121C87.8686 97.0241 88.3691 96.688 89.0366 96.688C89.5371 96.688 89.9543 96.856 90.2046 97.108C90.4549 97.36 90.6217 97.864 90.6217 98.368V101.896H89.704V98.7041C89.704 98.3681 89.704 98.116 89.6206 97.948C89.5371 97.78 89.4537 97.6961 89.2869 97.6121C89.12 97.5281 88.9531 97.4441 88.7863 97.4441C88.4526 97.4441 88.1189 97.5281 87.8686 97.7801C87.6183 98.0321 87.5349 98.368 87.5349 98.956V101.896H86.6171V98.536C86.6171 98.116 86.5337 97.864 86.3669 97.696C86.2 97.528 85.9497 97.4441 85.6994 97.4441C85.4491 97.4441 85.1989 97.5281 85.032 97.6121C84.7817 97.7801 84.6983 97.9481 84.6149 98.2001C84.5314 98.4521 84.448 98.7881 84.448 99.2921V101.98H83.6971V101.896Z" fill="#010101"/>
<path d="M92.04 103.828V96.7721H92.8743V97.4441C93.0412 97.1921 93.2915 97.024 93.5418 96.856C93.792 96.688 94.0423 96.688 94.376 96.688C94.7932 96.688 95.2103 96.7721 95.544 97.0241C95.8778 97.2761 96.128 97.528 96.2949 97.948C96.4618 98.368 96.5452 98.7881 96.5452 99.2921C96.5452 99.7961 96.4618 100.3 96.2949 100.72C96.128 101.14 95.7943 101.476 95.4606 101.644C95.1269 101.896 94.7098 101.98 94.2926 101.98C93.9589 101.98 93.7086 101.896 93.5418 101.812C93.2915 101.728 93.1246 101.56 92.9578 101.308V103.828H92.04ZM92.7909 99.376C92.7909 100.048 92.9577 100.552 93.208 100.804C93.4583 101.14 93.792 101.308 94.2092 101.308C94.6263 101.308 94.96 101.14 95.2103 100.804C95.4606 100.468 95.6275 99.9641 95.6275 99.2921C95.6275 98.6201 95.4606 98.1161 95.2103 97.8641C94.96 97.5281 94.6263 97.3601 94.2092 97.3601C93.792 97.3601 93.5417 97.5281 93.208 97.8641C92.9577 98.2001 92.7909 98.704 92.7909 99.376Z" fill="#010101"/>
<path d="M101.05 101.224C100.717 101.476 100.383 101.728 100.133 101.812C99.7989 101.896 99.4652 101.98 99.1314 101.98C98.5474 101.98 98.1303 101.812 97.7966 101.56C97.4629 101.308 97.296 100.972 97.296 100.468C97.296 100.216 97.3794 99.964 97.4629 99.796C97.5463 99.628 97.7132 99.46 97.88 99.292C98.0469 99.208 98.2972 99.04 98.5474 99.04C98.7143 98.956 98.9646 98.956 99.2983 98.872C100.049 98.788 100.55 98.704 100.883 98.536C100.883 98.452 100.883 98.368 100.883 98.284C100.883 97.948 100.8 97.696 100.633 97.528C100.383 97.36 100.049 97.192 99.632 97.192C99.2149 97.192 98.8812 97.276 98.7143 97.444C98.5474 97.612 98.3806 97.864 98.2972 98.2L97.4629 98.116C97.5463 97.78 97.6297 97.444 97.88 97.276C98.0469 97.024 98.2972 96.856 98.6309 96.772C98.9646 96.688 99.3817 96.604 99.7989 96.604C100.216 96.604 100.633 96.688 100.883 96.772C101.134 96.856 101.384 97.024 101.467 97.192C101.634 97.36 101.718 97.528 101.718 97.78C101.718 97.948 101.801 98.2 101.801 98.62V99.796C101.801 100.636 101.801 101.14 101.885 101.308C101.885 101.56 101.968 101.728 102.135 101.896H101.217C101.134 101.728 101.05 101.476 101.05 101.224ZM100.967 99.292C100.633 99.46 100.133 99.544 99.5486 99.628C99.2149 99.712 98.9646 99.712 98.7977 99.796C98.6309 99.88 98.5474 99.964 98.464 100.048C98.3806 100.132 98.3806 100.3 98.3806 100.468C98.3806 100.72 98.464 100.888 98.6309 101.056C98.7977 101.224 99.048 101.308 99.3817 101.308C99.7154 101.308 100.049 101.224 100.299 101.056C100.55 100.888 100.8 100.72 100.883 100.468C100.967 100.3 101.05 99.964 101.05 99.628V99.292H100.967Z" fill="#010101"/>
<path d="M103.219 101.896V96.7721H104.054V97.528C104.471 96.94 104.971 96.688 105.722 96.688C106.056 96.688 106.306 96.772 106.557 96.856C106.807 96.94 107.057 97.108 107.141 97.276C107.307 97.444 107.391 97.696 107.391 97.948C107.391 98.116 107.474 98.368 107.474 98.788V101.98H106.557V98.8721C106.557 98.5361 106.557 98.284 106.473 98.116C106.39 97.948 106.306 97.78 106.139 97.696C105.973 97.612 105.722 97.528 105.555 97.528C105.138 97.528 104.888 97.6121 104.554 97.8641C104.304 98.1161 104.137 98.536 104.137 99.208V101.98H103.219V101.896Z" fill="#010101"/>
<path d="M108.726 103.828L108.642 102.988C108.809 103.072 108.976 103.072 109.143 103.072C109.31 103.072 109.477 103.072 109.643 102.988C109.727 102.904 109.894 102.82 109.894 102.736C109.977 102.652 110.061 102.4 110.144 102.064C110.144 101.98 110.227 101.98 110.227 101.812L108.225 96.688H109.143L110.227 99.628C110.394 99.964 110.478 100.384 110.645 100.804C110.728 100.384 110.895 100.048 110.978 99.628L112.063 96.604H112.981L110.978 101.812C110.728 102.4 110.561 102.736 110.478 102.988C110.311 103.24 110.144 103.492 109.977 103.66C109.81 103.828 109.56 103.828 109.226 103.828C109.143 103.996 108.976 103.912 108.726 103.828Z" fill="#010101"/>
</svg>
