<svg width="256" height="114" viewBox="0 0 256 114" fill="none" xmlns="http://www.w3.org/2000/svg">
<path d="M17.803 10.533C18.1897 10.8224 18.5765 11.1117 18.9961 11.3432C19.5063 11.616 19.8519 11.9962 20 12.5584C20.5102 14.4845 21.0204 16.4189 21.5305 18.3533C21.6786 18.9072 21.7938 19.461 21.9337 20.0149C22.3945 21.8666 22.8636 23.7184 23.3326 25.5701C23.6864 26.9837 24.032 28.389 24.4188 29.7944C24.6327 30.5714 25.0524 30.8194 25.8341 30.6045C26.6816 30.373 27.5621 30.1829 28.3438 29.7944C29.9154 29.0256 31.6188 28.7197 33.2892 28.3973C36.0046 27.8682 38.7612 27.5045 41.5506 27.6368C44.6281 27.7608 47.7056 27.8848 50.6926 28.7941C52.6592 29.3893 54.6834 29.7944 56.5349 30.745C56.7077 30.836 56.9052 30.8856 57.0944 30.9352C57.9749 31.1584 58.4768 30.869 58.6661 29.9845C58.9788 28.5626 59.2585 27.1408 59.563 25.7189C59.6124 25.4709 59.67 25.2146 59.7276 24.9666C60.0073 23.6605 60.2871 22.3461 60.5669 21.04C60.822 19.8578 61.1017 18.6757 61.3568 17.4936C61.4638 17.0058 61.5543 16.5181 61.653 16.0221C61.867 14.9144 62.1221 13.8149 62.2702 12.7072C62.3442 12.1698 62.5335 11.8061 63.0108 11.5664C63.5045 11.3184 63.9817 11.0373 64.4508 10.7397C65.9401 9.77251 65.6768 7.50744 64.4261 6.62291C63.307 5.83758 61.9246 6.00291 60.9454 7.00318C60.2213 7.74718 60.1801 9.67331 60.9454 10.4586C61.686 11.2274 61.7189 11.6408 61.2087 12.5749C60.4352 13.972 59.637 15.3525 58.7977 16.7082C57.9831 18.0144 57.1109 19.2792 56.2304 20.544C55.5063 21.5938 54.6094 22.4536 53.4245 22.9661C52.7909 23.2389 52.1902 23.2472 51.573 22.933C50.3799 22.3213 49.3678 21.4864 48.5038 20.4613C47.6233 19.428 47.1049 18.1797 46.496 16.9976C46.0105 16.0634 45.6156 15.0797 45.2124 14.1042C44.299 11.8722 43.4185 9.63198 42.5216 7.39171C42.2501 6.72211 42.3488 6.11038 42.8014 5.53998C43.0153 5.27544 43.2293 5.00264 43.4185 4.72158C44.0192 3.81224 43.9698 2.53918 43.328 1.75384C42.571 0.827978 41.3943 0.571711 40.2341 1.05944C39.1726 1.50584 38.6213 2.44824 38.7282 3.58078C38.8023 4.41571 39.1808 5.06051 39.8473 5.56478C40.5138 6.06904 40.629 6.49064 40.3904 7.28424C40.341 7.46611 40.2834 7.63971 40.2176 7.81331C39.5758 9.38398 38.9257 10.9464 38.2839 12.517C37.2142 15.1458 36.0375 17.7333 34.614 20.1885C34.005 21.2301 33.3468 22.2634 32.3264 22.9744C31.3966 23.6274 30.3351 23.6936 29.3806 23.1645C28.3602 22.5941 27.4469 21.817 26.7228 20.8498C25.9164 19.7834 25.1758 18.6757 24.5257 17.5018C24.1884 16.8901 23.8098 16.3032 23.4889 15.6832C22.9376 14.6168 22.4686 13.5173 21.8761 12.4757C21.4071 11.649 21.3413 10.872 21.7938 10.0453C21.8514 9.92958 21.9008 9.81384 21.9502 9.68984C22.3698 8.63171 22.1148 7.68931 21.3824 6.87091C20.6912 6.10211 19.7696 5.96984 18.8316 6.22611C17.877 6.49064 17.2188 7.15198 16.9884 8.12744C16.7662 9.06984 16.9801 9.92131 17.803 10.533Z" fill="#12A89D"/>
<path d="M51.3509 21.2797C51.6801 21.4781 52.0915 21.5277 52.5605 21.6848C52.939 21.5112 53.441 21.4202 53.7208 21.1226C54.3791 20.4117 55.0127 19.6429 55.5146 18.8162C55.9919 18.0226 55.7532 17.3034 54.9797 16.7909C54.3297 16.3693 53.8524 15.7989 53.4328 15.1624C52.9966 14.501 52.8979 13.7901 53.1365 13.0378C53.227 12.7402 53.3422 12.4426 53.4328 12.145C53.6385 11.4506 53.5233 10.8389 52.9226 10.3842C52.3055 9.92131 51.6472 9.78077 50.9395 10.1693C50.2894 10.5248 49.9768 11.12 50.0755 11.8805C50.1249 12.2608 50.2236 12.641 50.347 12.9965C50.6021 13.7322 50.5774 14.4266 50.1742 15.0962C49.8369 15.6501 49.4831 16.204 49.1045 16.733C48.833 17.1133 48.6437 17.4853 48.7836 17.9565C49.2197 19.3949 50.0755 20.5192 51.3592 21.2797H51.3509Z" fill="#12A89D"/>
<path d="M28.4508 20.4283C28.9527 21.04 29.5617 21.4864 30.401 21.5029C30.977 21.5112 31.4542 21.3376 31.9562 20.9077C32.7873 20.1885 33.4044 19.3123 33.8817 18.3285C34.2026 17.6589 34.1532 17.0968 33.6759 16.5099C33.2727 16.0056 32.9271 15.4435 32.598 14.8813C32.2277 14.2448 32.203 13.5587 32.4252 12.856C32.5486 12.4757 32.6721 12.0955 32.7379 11.6987C32.8613 10.9877 32.5651 10.376 31.9644 10.0288C31.2732 9.64025 30.6314 9.77252 30.0142 10.2107C29.4382 10.624 29.0926 11.1448 29.2901 11.8888C29.3806 12.2195 29.5041 12.5419 29.6275 12.856C29.9566 13.6992 29.8743 14.4928 29.2901 15.1872C28.8458 15.7163 28.3603 16.2205 27.8419 16.6752C27.1013 17.3283 26.9121 18.1136 27.4222 18.9568C27.7267 19.4693 28.0641 19.9653 28.4426 20.4283H28.4508Z" fill="#12A89D"/>
<path d="M41.312 31.332C18.8069 31.332 0.572388 49.6592 0.572388 72.2603C0.572388 94.8613 18.8151 113.189 41.312 113.189C46.6935 113.189 51.8282 112.139 56.5267 110.237L53.9511 105.368C50.0261 106.881 45.7637 107.708 41.312 107.708C21.8186 107.708 6.0197 91.8357 6.0197 72.252C6.0197 52.6683 21.8186 36.7963 41.312 36.7963C60.8055 36.7963 76.6044 52.6683 76.6044 72.252C76.6044 84.0237 70.8938 94.4563 62.1056 100.904L65.4958 105.186C75.5347 97.7299 82.0517 85.7597 82.0517 72.252C82.0517 49.6427 63.809 31.3237 41.312 31.3237V31.332Z" fill="#12A89D"/>
<path d="M41.1969 46.1954C28.278 46.1954 17.5562 55.6525 15.5155 68.0525H66.87C64.8293 55.6525 54.1157 46.1954 41.1886 46.1954H41.1969Z" fill="#12A89D"/>
<path d="M49.1045 95.7293C48.4874 94.5554 47.8538 93.3981 47.2202 92.2325C46.4138 90.7362 45.5992 89.2482 44.8092 87.752C43.4597 85.2224 42.1267 82.6928 40.7937 80.1549C40.5221 79.6341 40.2835 79.105 40.0037 78.5925C39.724 78.08 39.436 77.5757 39.1068 77.0962C38.7365 76.5589 38.2017 76.3688 37.5516 76.3688C34.1121 76.377 30.6808 76.3688 27.2412 76.3688C23.8757 76.3688 20.5102 76.3688 17.1448 76.3688C16.9061 76.3688 16.6593 76.3688 16.4207 76.4018C15.4908 76.5258 15.137 76.997 15.3509 77.9146C15.9269 80.4277 16.7745 82.8746 18.0417 85.1066C19.7532 88.1157 21.868 90.8189 24.5998 93.0178C26.0645 94.1917 27.6527 95.1589 29.2737 96.06C30.8947 96.9693 32.5898 97.7464 34.4741 97.9861C34.6798 98.0109 34.8856 98.1101 35.0913 98.1514C36.1199 98.3581 37.1402 98.6474 38.177 98.7384C39.617 98.8624 41.0735 98.8789 42.5134 98.8789C44.6611 98.8789 46.7512 98.4821 48.7918 97.8456C49.4254 97.6472 49.6394 97.2752 49.4666 96.6386C49.3843 96.3245 49.2691 96.0104 49.1128 95.721L49.1045 95.7293Z" fill="#12A89D"/>
<path d="M66.5244 76.501C66.1952 76.4101 65.8332 76.377 65.4876 76.377C62.945 76.3688 60.4023 76.377 57.8679 76.377V76.3936C55.9671 76.3936 54.0663 76.3936 52.1655 76.3936C51.3674 76.3936 50.5774 76.3688 49.7793 76.4101C48.9153 76.4514 48.6437 76.9392 49.0222 77.708C49.302 78.2866 49.5818 78.8653 49.8862 79.4274C51.3674 82.2216 52.865 85.0074 54.3461 87.8016C55.0702 89.1738 55.7779 90.5544 56.502 91.9266C56.6419 92.1912 56.7982 92.4474 56.9875 92.6706C57.259 92.993 57.7198 93.0757 58.0983 92.8856C58.3041 92.7864 58.5015 92.6541 58.6743 92.497C60.0732 91.2405 61.3815 89.9013 62.5006 88.372C63.6444 86.8013 64.7388 85.2058 65.4465 83.3872C66.0225 81.9074 66.582 80.4112 67.1168 78.9066C67.2567 78.5264 67.2896 78.0965 67.339 77.6914C67.4048 77.1541 67.0592 76.6416 66.5408 76.501H66.5244Z" fill="#12A89D"/>
<path d="M135.233 50.2378C134.665 50.1717 134.106 50.0229 133.563 49.8576C132.995 49.684 132.838 49.3698 133.25 48.816C134.657 46.9146 135.299 44.757 135.323 42.3845C135.216 41.5248 135.184 40.6568 134.994 39.8136C133.678 34.0848 128.494 30.3565 122.577 30.8525C117.081 31.3154 112.588 35.9778 112.267 41.6901C112.02 46.0632 113.74 49.5765 117.402 51.949C121.195 54.4042 125.211 54.5778 129.243 52.4616C129.901 52.1144 130.345 52.1226 130.938 52.5277C132.221 53.4122 133.67 53.8173 135.217 53.8917C135.653 53.9165 135.858 53.8173 135.85 53.3544C135.834 52.5112 135.834 51.668 135.85 50.833C135.858 50.3784 135.644 50.2792 135.233 50.2296V50.2378ZM117.55 46.7576C119.582 45.5589 124.272 47.113 126.774 49.4525C124.223 51.2133 119.146 50.0229 117.55 46.7576ZM130.222 46.5674C129.86 47.1461 129.572 47.1709 129.07 46.7245C126.856 44.7405 124.297 43.3682 121.351 42.9466C119.895 42.7317 118.381 42.8061 116.908 42.8888C116.2 42.9301 116.102 42.6738 116.102 42.1117C116.143 38.3256 119.352 34.7709 123.038 34.432C126.897 34.0765 130.526 36.8789 131.226 40.7477C131.324 41.3181 131.374 41.8885 131.44 42.4672C131.415 43.9634 131.003 45.3109 130.214 46.5757L130.222 46.5674Z" fill="#727272"/>
<path d="M255.419 48.8904C255.419 43.3104 255.411 37.7304 255.436 32.1503C255.436 31.4559 255.238 31.208 254.547 31.2576C253.872 31.3072 253.181 31.3154 252.507 31.2576C251.733 31.1914 251.536 31.4973 251.544 32.2413C251.577 36.9533 251.56 41.6653 251.552 46.369C251.552 46.6914 251.503 47.0138 251.478 47.3362C251.412 47.3528 251.346 47.3693 251.28 47.3858C251.116 47.1378 250.935 46.8898 250.787 46.6336C248.022 41.7727 245.249 36.9037 242.509 32.0264C242.204 31.4808 241.859 31.2162 241.217 31.2576C240.328 31.3154 239.431 31.3237 238.551 31.2576C237.728 31.1914 237.547 31.5303 237.547 32.2991C237.58 36.168 237.563 40.0368 237.563 43.9056C237.563 46.7989 237.58 49.6922 237.555 52.5938C237.555 53.2055 237.744 53.4618 238.37 53.4288C239.078 53.3957 239.785 53.3792 240.485 53.4288C241.25 53.4866 241.464 53.189 241.456 52.4368C241.423 47.7248 241.439 43.0128 241.447 38.309C241.447 37.9866 241.497 37.6642 241.521 37.3418C241.587 37.3253 241.653 37.3088 241.719 37.2922C241.867 37.5154 242.023 37.7386 242.155 37.9701C244.977 42.897 247.8 47.8157 250.606 52.7509C250.869 53.2138 251.157 53.4536 251.708 53.4288C252.704 53.3874 253.7 53.404 254.695 53.4288C255.23 53.437 255.436 53.2386 255.428 52.693C255.395 51.4282 255.419 50.1634 255.419 48.9069V48.8904Z" fill="#727272"/>
<path d="M165.473 31.9189C165.473 31.4394 165.292 31.2575 164.823 31.2658C164.066 31.2823 163.301 31.3154 162.544 31.2575C161.778 31.1997 161.564 31.489 161.573 32.2413C161.606 36.449 161.606 40.665 161.573 44.8727C161.573 45.7573 161.49 46.6666 161.285 47.5263C160.865 49.2541 159.573 50.213 157.796 50.2543C155.788 50.3039 154.496 49.4773 153.969 47.6834C153.764 46.989 153.673 46.2367 153.673 45.5175C153.649 41.1527 153.657 36.7797 153.657 32.4149C153.657 31.6598 153.295 31.2823 152.571 31.2823C151.995 31.2823 151.419 31.2823 150.843 31.2823C149.789 31.2823 149.781 31.2823 149.781 32.3157C149.781 34.713 149.781 37.1021 149.781 39.4994C149.781 41.5495 149.732 43.6079 149.806 45.6581C149.847 46.7741 149.937 47.9397 150.283 48.9895C151.427 52.445 154.973 54.3463 159.014 53.809C162.659 53.3213 165.308 50.4445 165.407 46.5426C165.531 41.6735 165.448 36.8045 165.473 31.9354V31.9189Z" fill="#727272"/>
<path d="M192.915 49.7666C190.899 49.8162 188.883 49.7666 186.867 49.7914C186.234 49.7997 185.97 49.5848 185.987 48.9317C186.02 47.6917 186.028 46.46 185.987 45.22C185.954 44.4677 186.217 44.2032 186.974 44.2197C188.859 44.261 190.743 44.2032 192.627 44.2445C193.36 44.261 193.606 44.0048 193.549 43.2938C193.499 42.6904 193.491 42.0786 193.549 41.4834C193.615 40.756 193.31 40.5906 192.644 40.6072C190.71 40.6402 188.768 40.6072 186.834 40.6237C186.234 40.6237 185.987 40.417 185.995 39.797C186.02 38.5074 186.036 37.2178 185.995 35.9282C185.962 35.1429 186.217 34.8618 187.015 34.8784C189.056 34.928 191.097 34.8784 193.137 34.9032C193.68 34.9032 193.894 34.7213 193.87 34.1757C193.837 33.4896 193.829 32.8034 193.87 32.1256C193.911 31.4642 193.648 31.2658 193.006 31.2741C189.681 31.2989 186.357 31.3072 183.033 31.2741C182.276 31.2658 182.119 31.5552 182.128 32.2413C182.16 35.581 182.144 38.929 182.144 42.2688C182.144 45.716 182.144 49.1632 182.144 52.6104C182.144 53.0733 182.177 53.437 182.786 53.437C186.267 53.4205 189.747 53.4288 193.228 53.437C193.705 53.437 193.87 53.2138 193.861 52.7592C193.845 52.0978 193.812 51.4365 193.87 50.7834C193.936 50.0394 193.705 49.7666 192.923 49.7914L192.915 49.7666Z" fill="#727272"/>
<path d="M220.794 31.2576C217.494 31.2824 214.194 31.2824 210.895 31.2576C210.212 31.2576 209.989 31.456 209.998 32.1586C210.031 35.5562 210.014 38.9456 210.014 42.3432C210.014 45.7656 210.014 49.188 210.014 52.6104C210.014 53.156 210.146 53.4288 210.755 53.4288C214.186 53.4122 217.609 53.4122 221.04 53.4288C221.534 53.4288 221.756 53.2469 221.74 52.7344C221.715 52.0234 221.707 51.3125 221.74 50.6016C221.773 49.9981 221.575 49.7666 220.942 49.7832C218.876 49.8162 216.803 49.7832 214.737 49.808C214.087 49.8162 213.849 49.5848 213.865 48.9317C213.898 47.6917 213.915 46.46 213.865 45.22C213.832 44.4512 214.12 44.2114 214.861 44.228C216.745 44.2693 218.629 44.2197 220.514 44.2528C221.18 44.261 221.485 44.0874 221.419 43.3682C221.361 42.74 221.37 42.1034 221.419 41.4752C221.46 40.8304 221.246 40.5989 220.58 40.6072C218.613 40.6402 216.655 40.6072 214.688 40.6237C214.079 40.6237 213.849 40.3922 213.865 39.7888C213.89 38.4744 213.906 37.16 213.865 35.8373C213.84 35.1098 214.104 34.8701 214.82 34.8784C216.836 34.9114 218.852 34.8618 220.868 34.9032C221.575 34.9197 221.797 34.68 221.748 33.9938C221.699 33.3904 221.691 32.7786 221.748 32.1834C221.822 31.4229 221.485 31.2576 220.794 31.2576Z" fill="#727272"/>
<path d="M165.884 75.4016H164.362V74.3517H165.884V70.673H167.193V74.3517H169.019V75.4016H167.193V83.8501H165.884V75.4016Z" fill="#727272"/>
<path d="M187.262 81.3536C186.481 82.9325 185.148 84.2386 182.901 84.2386C179.741 84.2386 178.046 81.6594 178.046 79.0968C178.046 76.4018 179.75 73.9549 182.901 73.9549C186.053 73.9549 187.262 76.7573 187.262 78.576V79.2125H179.437C179.396 81.0725 180.572 83.197 182.901 83.197C183.666 83.197 185.213 83.0648 186.258 80.8576L187.262 81.3618V81.3536ZM185.954 78.1544C185.913 76.625 184.843 75.0048 182.926 75.0048C181.14 75.0048 179.807 76.2944 179.552 78.1544H185.954Z" fill="#727272"/>
<path d="M205.242 83.3872C204.633 83.7592 203.67 84.2386 202.321 84.2386C199.202 84.2386 196.898 82.1141 196.898 79.0968C196.898 76.0794 199.185 73.9549 202.304 73.9549C203.876 73.9549 204.748 74.4178 205.242 74.765V76.0546C203.974 75.1536 203.168 75.0048 202.386 75.0048C199.794 75.0048 198.289 76.8648 198.289 79.0968C198.289 81.5933 200.049 83.1888 202.255 83.1888C203.522 83.1888 204.518 82.6432 205.242 82.0066V83.3872Z" fill="#727272"/>
<path d="M215.091 67.7632H216.4V75.9307C216.836 75.0792 217.79 73.9632 219.576 73.9632C222.801 73.9632 222.867 77.1376 222.867 77.7741V83.8584H221.559V77.9477C221.559 76.8069 221.427 75.0131 219.428 75.0131C217.667 75.0131 216.4 76.6995 216.4 78.9067V83.8501H215.091V67.7632Z" fill="#727272"/>
</svg>
