<svg width="264" height="84" viewBox="0 0 264 84" fill="none" xmlns="http://www.w3.org/2000/svg">
<path d="M32.52 0.772644C33.4028 0.88531 34.2857 0.971976 35.1685 1.10198C42.18 2.11598 48.1285 5.24465 52.9885 10.436C57.2742 15.012 59.88 20.4546 60.8571 26.686C61.4142 30.2566 61.3285 33.8273 60.5828 37.3633C60.48 37.866 60.5828 38.1693 60.9685 38.49C62.9057 40.0933 65.1428 41.116 67.4485 42C68.64 42.4593 69.8571 42.8493 71.0571 43.2653C71.0485 43.3086 71.04 43.352 71.0228 43.3953C69.3342 42.9793 67.6199 42.624 65.9571 42.13C60.1628 40.3966 54.6771 37.9006 49.3114 35.136C43.1399 31.9553 37.14 28.4886 31.5342 24.3546C30.3 23.4446 29.1342 22.422 27.9942 21.3906C27.48 20.9226 27.1114 20.29 26.6485 19.7006C26.5285 19.8393 26.3142 20.056 26.1342 20.2986C25.5085 21.1393 24.8914 21.9886 24.2828 22.838C23.8628 23.4273 23.3657 23.4013 23.0057 22.76C22.62 22.0666 22.7142 21.3906 23.3314 20.68C24.5485 19.2673 25.4742 17.69 25.98 15.8873C26.2028 15.1073 26.28 14.2926 26.4342 13.4953C26.3657 13.4693 26.2971 13.452 26.2285 13.426C26.1171 13.582 26.0142 13.738 25.9028 13.894C24.4285 16.052 22.5428 17.6553 20.0142 18.444C19.2257 18.6866 18.48 19.0593 17.6657 19.302C18.2142 18.9986 18.7542 18.678 19.32 18.4093C22.4828 16.9013 24.8914 14.6046 26.5542 11.4933C26.6742 11.2766 26.7428 11.034 26.7685 10.7826C26.34 11.2766 25.9457 11.7966 25.4828 12.2646C24.3942 13.3566 23.0828 14.128 21.7285 14.8213C20.6399 15.3846 19.5085 15.8613 18.4628 16.494C17.6742 16.9706 16.9028 17.5426 16.2857 18.2186C15.3 19.3106 15.2142 20.8793 16.0885 22.0493C16.5 22.5953 16.86 23.2886 17.6228 23.54C17.7857 23.592 17.8457 24.0426 17.9057 24.32C17.9742 24.6406 17.9057 24.9613 18.3942 25.0826C18.6771 25.152 18.9171 25.542 19.1142 25.828C19.32 26.1226 19.5 26.2353 19.8342 26.0533C20.5114 25.672 21.0342 25.1606 21.3171 24.502C21.4542 24.7013 21.5828 24.944 21.7628 25.1346C22.3028 25.7066 22.3542 26.322 22.14 27.0673C21.7028 28.5666 21.24 30.0746 21 31.6086C20.4514 35.084 20.9657 38.4813 22.0371 41.8006C23.4514 46.1686 25.7228 50.0686 28.5 53.6653C30.1885 55.858 32.0314 57.9466 33.8571 60.0353C36.9342 63.5713 39.2057 67.5493 40.3028 72.1426C41.1685 75.7653 41.0571 79.4226 40.4742 83.08C40.4742 83.1233 40.4228 83.158 40.3971 83.2013C40.2514 81.806 40.1657 80.4107 39.96 79.0327C39.06 72.8447 37.02 67.142 33.0685 62.228C32.7857 61.8726 32.4942 61.7513 32.0485 61.7686C18.3771 62.2453 6.87424 53.596 2.57995 41.766C-3.67719 24.5193 6.58281 5.53931 24.3599 1.53531C25.8514 1.19731 27.3857 1.07598 28.9028 0.859311C29.0828 0.833311 29.2542 0.789977 29.4342 0.75531C30.4542 0.75531 31.4828 0.75531 32.5028 0.75531L32.52 0.772644Z" fill="#62136D"/>
<path d="M29.6486 34.3213C30.2228 33.6713 30.8828 33.7147 31.5257 33.8707C32.6657 34.1393 33.6257 34.7807 34.5686 35.448C39.4714 38.9147 44.6057 41.9567 50.1086 44.3573C53.0057 45.6227 55.9543 46.7667 59.1 47.2433C60.78 47.4947 62.4686 47.668 64.1486 47.8673C64.4143 47.902 64.6886 47.9193 64.9628 48.0407C64.4571 48.084 63.96 48.136 63.4543 48.1707C58.4828 48.4653 53.7943 47.4167 49.3028 45.2413C43.7571 42.5633 38.4 39.5907 33.3686 36.0027C32.2714 35.214 31.1486 34.434 29.6486 34.304V34.3213Z" fill="#62136D"/>
<path d="M30.6085 42.806C31.3542 42.182 32.1514 42.0173 33.0342 42.1646C34.2942 42.39 35.3485 43.0486 36.3514 43.8026C40.1228 46.6366 44.22 48.8813 48.6514 50.476C52.0371 51.698 55.5514 51.9753 59.1257 51.672C59.1942 51.672 59.2714 51.672 59.4857 51.672C58.3628 52.192 57.3 52.4346 56.2114 52.504C50.4771 52.868 45.2914 51.1953 40.5 48.1273C38.5542 46.8793 36.7028 45.5013 34.7657 44.2533C33.9257 43.716 32.9828 43.3346 32.0571 42.9706C31.6371 42.806 31.14 42.858 30.6171 42.806H30.6085Z" fill="#62136D"/>
<path d="M37.74 56.534C37.1486 55.5287 36.5486 54.5147 35.9571 53.5093C35.8543 53.336 35.7943 53.1367 35.7428 52.946C35.4428 51.88 35.8028 51.2733 36.8914 51.2993C37.8257 51.3167 38.7686 51.4987 39.6857 51.7153C43.0028 52.4953 46.2943 53.336 49.6114 54.1247C50.3657 54.3067 51.1457 54.3587 51.9428 54.5667C51.2914 54.688 50.6486 54.8527 49.9971 54.9307C46.9714 55.3033 44.04 54.8093 41.16 53.908C40.6543 53.752 40.14 53.622 39.6171 53.5527C38.3486 53.388 37.5857 54.1593 37.7057 55.4507C37.74 55.7973 37.8086 56.1353 37.86 56.482C37.8171 56.4993 37.7828 56.5167 37.74 56.534Z" fill="#62136D"/>
<path d="M263.246 55.3466H257.829C257.786 54.766 257.743 54.272 257.691 53.648C257.331 53.934 257.066 54.142 256.791 54.3586C255.214 55.624 253.406 55.988 251.469 55.6413C249.343 55.26 247.903 53.44 247.68 50.944C247.431 48.188 248.357 45.9953 250.851 44.678C252.034 44.054 253.32 43.6206 254.537 43.0486C255.291 42.702 256.054 42.3293 256.731 41.8526C257.46 41.3413 257.7 40.5786 257.366 39.6946C257.066 38.8886 256.431 38.6373 255.66 38.646C254.76 38.6546 253.92 39.0533 253.894 39.9633C253.851 41.4193 252.84 41.6793 251.871 42.1733C250.62 42.8146 249.42 43.586 248.091 44.3746C248.194 42.6586 248.151 40.8733 248.434 39.14C248.786 37.0166 250.209 35.6733 252.231 35.1013C254.7 34.408 257.203 34.4166 259.654 35.214C261.9 35.942 262.92 37.3806 263.066 39.7726C263.091 40.1886 263.186 40.596 263.246 41.0033V55.338V55.3466ZM257.469 45.5966C256.011 46.0213 254.769 46.394 253.946 47.4513C253.534 47.98 253.277 48.734 253.209 49.41C253.08 50.5713 253.74 51.412 254.666 51.5593C255.917 51.7673 256.937 51.204 257.143 49.9473C257.366 48.5693 257.366 47.1566 257.469 45.5966Z" fill="#62136D"/>
<path d="M239.289 55.2947C239.289 54.8527 239.289 54.4627 239.289 54.0813C239.289 50.268 239.289 46.4633 239.289 42.65C239.289 42.3813 239.289 42.104 239.289 41.8353C239.237 40.7087 238.586 39.9547 237.643 39.9373C236.674 39.92 235.954 40.7173 235.946 41.87C235.937 45.952 235.946 50.034 235.946 54.116C235.946 54.48 235.946 54.8353 235.946 55.2687H230.786C230.786 54.9133 230.786 54.532 230.786 54.1507C230.82 50.1553 230.846 46.1687 230.88 42.1733C230.889 40.7607 230.383 39.9807 229.371 39.8767C228.257 39.764 227.486 40.5093 227.486 41.7573C227.477 45.9 227.486 50.0427 227.486 54.1853C227.486 54.5147 227.486 54.844 227.486 55.26H222.351C222.334 54.974 222.3 54.662 222.3 54.3413C222.3 50.7707 222.283 47.2087 222.3 43.638C222.317 38.7153 225.814 35.214 230.7 35.214C232.851 35.214 235.011 35.2053 237.163 35.214C241.243 35.24 244.526 38.516 244.551 42.6413C244.577 46.602 244.551 50.5627 244.551 54.5233C244.551 54.7573 244.526 54.9913 244.517 55.2773H239.297L239.289 55.2947Z" fill="#62136D"/>
<path d="M147.754 42.546C147.66 44.73 147.72 46.706 147.454 48.6386C146.871 52.764 144.531 54.87 140.417 55.104C139.294 55.1646 138.129 55.104 137.031 54.8873C133.774 54.2373 131.683 52.0706 131.391 48.6126C131.091 44.9813 131.126 41.3153 131.1 37.658C131.091 36.488 131.28 35.3093 131.486 34.1566C132.06 30.9673 134.023 29.104 137.126 28.4973C139.397 28.0553 141.669 28.1073 143.777 29.208C146.554 30.6553 147.36 33.2726 147.609 36.15C147.754 37.7966 147.711 37.8053 146.194 38.3773C144.831 38.8973 143.469 39.4086 141.926 39.9806C141.926 38.8973 141.977 37.9353 141.909 36.9906C141.849 36.15 141.737 35.3006 141.506 34.5033C141.214 33.498 140.4 33.004 139.38 33.0386C138.36 33.0733 137.571 33.5933 137.391 34.6593C137.143 36.1673 136.954 37.7186 136.954 39.244C136.954 42.1733 137.066 45.1026 137.229 48.0233C137.306 49.4533 138 50.1813 139.08 50.346C140.366 50.5453 141.3 50.008 141.566 48.7253C141.789 47.6073 141.78 46.446 141.917 45.3106C141.951 45.0246 142.089 44.6 142.286 44.522C144.009 43.8546 145.757 43.248 147.746 42.5373L147.754 42.546Z" fill="#62136D"/>
<path d="M76.6543 42.0087C78.3343 43.274 79.9629 44.4787 81.5572 45.7353C81.7886 45.9173 81.9086 46.316 81.96 46.6367C82.1057 47.4947 82.1229 48.3787 82.3114 49.228C82.5172 50.1467 83.2114 50.5453 84.1114 50.5627C85.0114 50.5713 85.6714 50.164 85.98 49.2887C86.3657 48.1793 86.2286 47.1047 85.4486 46.238C84.8914 45.6227 84.2229 45.0853 83.5629 44.5827C82.1829 43.5253 80.7514 42.5287 79.3714 41.48C76.4572 39.27 76.4057 33.628 78.4543 31.1493C79.92 29.3727 81.8743 28.7747 84.0429 28.7747C84.9857 28.7747 85.9629 28.8873 86.88 29.13C89.6314 29.858 91.1314 31.7907 91.38 34.5813C91.5514 36.514 91.4143 38.4813 91.4143 40.3967C89.8457 39.27 88.26 38.152 86.7086 36.9907C86.4943 36.8347 86.3914 36.4707 86.3143 36.176C86.1514 35.5087 86.1172 34.798 85.8857 34.1567C85.6029 33.3767 84.96 32.9693 84.1114 33.0473C83.2372 33.1253 82.7143 33.6713 82.4914 34.512C82.26 35.4047 82.4572 36.228 83.0829 36.8607C83.7086 37.502 84.4114 38.074 85.1314 38.6027C86.46 39.5733 87.8572 40.466 89.1772 41.4453C90.4972 42.416 91.3457 43.768 91.4657 45.3973C91.5772 46.914 91.6372 48.5 91.3372 49.9733C90.6943 53.1453 88.3629 54.9307 84.9172 55.104C83.9143 55.156 82.8772 55.078 81.8914 54.8873C79.1829 54.3587 77.5029 52.686 76.9543 49.93C76.8 49.1673 76.6972 48.3787 76.68 47.5987C76.6372 45.7353 76.6714 43.872 76.6714 42.0087H76.6543Z" fill="#62136D"/>
<path d="M164.983 55.0953H159.651C159.634 54.6707 159.6 54.2893 159.6 53.908C159.583 49.8 159.6 45.6833 159.54 41.5753C159.506 39.504 159.257 39.3307 157.209 39.348C156.917 39.348 156.626 39.348 156.214 39.348V55.104H150.866C150.849 54.74 150.806 54.4193 150.806 54.0987C150.806 45.874 150.814 37.6493 150.789 29.4333C150.789 28.532 151.003 28.194 151.937 28.2633C153.069 28.35 154.209 28.3153 155.34 28.2633C155.991 28.2373 156.24 28.428 156.214 29.13C156.171 30.794 156.24 32.458 156.18 34.1133C156.154 34.8587 156.429 35.0493 157.106 35.0147C158.057 34.9627 159.017 35.032 159.977 34.98C163.131 34.8153 164.606 36.2453 164.837 39.6513C165.009 42.182 164.949 44.7213 164.974 47.2607C164.991 49.5313 164.974 51.7933 164.974 54.064C164.974 54.3933 164.974 54.714 164.974 55.0953H164.983Z" fill="#62136D"/>
<path d="M108.78 55.104H103.534C103.534 54.7487 103.534 54.428 103.534 54.1073C103.534 50.1207 103.534 46.1253 103.526 42.1387C103.517 39.322 103.029 38.932 100.131 39.426V55.078H94.7914V28.7747H100.106V34.9193C101.417 34.9193 102.6 34.954 103.791 34.9193C107.057 34.8067 108.643 36.0113 108.797 39.6253C109.02 44.6953 108.866 49.774 108.874 54.8527C108.874 54.9047 108.831 54.9653 108.78 55.0953V55.104Z" fill="#62136D"/>
<path d="M167.88 44.314C167.889 42.3553 167.606 40.2753 168.369 38.2733C169.097 36.3406 170.631 35.344 172.543 34.9366C174.677 34.4773 176.82 34.4946 178.937 35.0753C181.371 35.7426 182.7 37.1813 182.751 39.6946C182.863 44.86 182.786 50.0253 182.786 55.2686H177.514C177.489 54.7486 177.471 54.246 177.437 53.596C177.137 53.8386 176.914 54.012 176.7 54.194C175.114 55.5546 173.263 55.9793 171.249 55.6586C169.277 55.3466 167.811 53.6913 167.451 51.4726C166.937 48.3266 168.009 46.0126 170.803 44.5393C171.934 43.9413 173.177 43.5513 174.343 43.0226C175.071 42.6846 175.791 42.312 176.451 41.8526C177.214 41.324 177.369 40.5266 177.069 39.6773C176.786 38.88 176.126 38.6373 175.346 38.6546C174.437 38.672 173.631 39.0966 173.58 39.998C173.511 41.3326 172.654 41.6793 171.694 42.1473C170.4 42.78 169.183 43.5773 167.889 44.3226L167.88 44.314ZM177.171 45.6053C176.537 45.8133 176.109 45.926 175.706 46.0906C174.583 46.5586 173.511 47.1133 173.083 48.37C172.766 49.2886 172.731 50.216 173.391 51.022C173.966 51.724 174.763 51.7153 175.534 51.49C176.486 51.2126 176.88 50.424 176.957 49.4966C177.06 48.2746 177.094 47.044 177.171 45.6053Z" fill="#62136D"/>
<path d="M206.349 45.6833C207.686 46.6193 208.98 47.5727 210.326 48.448C210.84 48.786 211.131 49.124 211.2 49.7827C211.363 51.282 212.237 52.062 213.463 51.9147C214.277 51.8193 214.877 51.4033 215.083 50.5713C215.28 49.7827 215.031 49.1067 214.363 48.682C213.686 48.2487 212.94 47.9193 212.237 47.5293C211.14 46.914 210 46.368 208.989 45.6313C206.872 44.106 206.057 41.6533 206.709 39.1487C207.292 36.8953 209.143 35.3007 211.749 35.0667C213.034 34.9453 214.38 34.9973 215.649 35.2487C218.006 35.7167 219.446 37.294 219.72 39.712C219.891 41.246 219.754 42.8233 219.754 44.2013C218.589 43.4127 217.397 42.5287 216.12 41.7747C215.434 41.376 215.083 40.934 214.997 40.1193C214.86 38.802 214.149 38.2213 212.94 38.4813C212.451 38.5853 211.817 38.984 211.654 39.4C211.474 39.868 211.569 40.674 211.886 41.0467C212.383 41.6447 213.129 42.052 213.823 42.4507C215.014 43.1353 216.283 43.69 217.449 44.418C219.857 45.9087 220.311 48.24 219.909 50.8227C219.506 53.3793 217.877 54.844 215.434 55.4073C213.591 55.832 211.749 55.8233 209.966 55.1473C207.754 54.3067 206.554 52.6427 206.4 50.2853C206.297 48.7253 206.383 47.148 206.383 45.6747L206.349 45.6833Z" fill="#62136D"/>
<path d="M126.06 45.432C125.897 47.252 125.863 49.1673 125.52 51.0133C125.177 52.8247 123.926 54.0293 122.186 54.61C120.146 55.2947 118.08 55.286 116.014 54.6707C113.889 54.038 112.697 52.5473 112.354 50.4153C111.806 46.992 111.789 43.5427 112.286 40.1193C112.723 37.0773 114.249 35.448 117.266 35.032C118.851 34.8153 120.574 34.8933 122.126 35.292C124.851 35.994 126.506 39.0966 125.889 41.8786C125.64 42.9793 124.903 43.6293 123.823 43.9066C121.826 44.418 119.846 44.9813 117.849 45.4666C117.3 45.6053 117.129 45.848 117.137 46.394C117.171 47.6593 117.137 48.9333 117.137 50.1986C117.154 51.5593 117.986 52.478 119.177 52.4693C120.334 52.4607 121.14 51.5853 121.166 50.2593C121.183 49.4446 121.209 48.6213 121.166 47.8153C121.123 47.1306 121.329 46.81 122.04 46.6453C123.326 46.342 124.586 45.8913 126.069 45.432H126.06ZM117.129 43.4213C118.397 43.0833 119.554 42.806 120.686 42.4506C120.891 42.39 121.131 42.052 121.149 41.8267C121.191 40.9253 121.2 40.0153 121.14 39.114C121.063 38.048 120.214 37.3286 119.143 37.3286C118.097 37.3286 117.189 38.074 117.146 39.1226C117.086 40.5006 117.129 41.8873 117.129 43.4126V43.4213Z" fill="#62136D"/>
<path d="M186.489 55.2687C186.489 52.2093 186.454 49.228 186.506 46.238C186.523 44.9813 186.557 43.6813 186.84 42.468C187.817 38.256 192 34.9973 195.986 35.2747V41.0813C193.114 41.6533 191.983 43.0573 191.983 46.0387C191.983 49.0893 191.983 52.14 191.983 55.2687H186.497H186.489Z" fill="#62136D"/>
<path d="M204.309 35.2573V55.2947H198.934C198.909 55.13 198.874 55.0173 198.874 54.896C198.874 50.3113 198.84 45.718 198.883 41.1333C198.9 39.3567 199.74 37.9527 201.257 37.0253C202.226 36.436 203.211 35.89 204.309 35.2573Z" fill="#62136D"/>
<path d="M204.343 28.3673C204.343 29.8753 204.369 31.3226 204.317 32.7613C204.309 33.004 204 33.2986 203.76 33.446C202.08 34.4686 200.254 35.2833 198.934 37.1033V28.3673H204.343Z" fill="#62136D"/>
<path d="M226.414 35.188C224.091 36.6787 223.826 36.956 222.223 39.426V35.188H226.414Z" fill="#62136D"/>
<path d="M190.929 35.4653C188.914 36.4967 187.551 37.866 186.549 39.92V35.4653H190.929Z" fill="#62136D"/>
</svg>
