<svg width="194" height="52" viewBox="0 0 194 52" fill="none" xmlns="http://www.w3.org/2000/svg">
<path d="M193.352 0.442688V11.0411C189.229 11.1606 185.157 11.28 180.983 11.3995C180.872 24.5067 180.752 37.5456 180.64 50.687C177.272 50.576 173.972 50.4651 170.569 50.3542C170.363 37.3579 170.157 24.4384 169.952 11.3824C169.557 11.3824 169.214 11.3824 168.88 11.3824C164.44 11.4336 159.992 11.4848 155.552 11.536C150.083 11.6043 144.614 11.664 139.137 11.7408C138.434 11.7494 137.723 11.8432 137.029 11.9456C135.803 12.1334 135.177 12.7734 134.929 13.9936C134.672 15.2566 134.886 16.0331 136.034 16.5792C137.792 17.407 139.6 18.1408 141.46 18.704C145.283 19.8731 149.234 20.5643 152.929 22.2283C157.549 24.319 160.017 27.8603 160.763 32.7328C161.449 37.1702 160.343 41.1808 157.694 44.7648C155.654 47.5211 152.757 49.0742 149.466 49.7398C147.374 50.1664 145.189 50.3115 143.046 50.3115C136.54 50.3115 130.043 50.1664 123.537 50.0811C123.383 50.0811 123.229 50.0214 122.98 49.9702C123.092 46.0022 123.194 42.0427 123.306 38.0576C124.969 38.0576 126.572 38.0662 128.166 38.0576C133.737 38.0235 139.3 37.9979 144.872 37.9296C146.577 37.9126 148.069 37.2726 149.26 36.0352C150.109 35.1478 150.16 34.2347 149.38 33.279C148.454 32.127 147.237 31.376 145.849 30.8811C140.209 28.9014 134.569 26.9131 128.929 24.9248C124.24 23.2694 121.206 18.9771 120.932 13.6267C120.786 10.7936 121.103 8.03735 122.74 5.62242C124.994 2.30295 128.329 0.843754 132.22 0.775487C138.692 0.656021 145.163 0.749888 151.634 0.715754C164.869 0.638954 178.094 0.54509 191.329 0.451223C191.972 0.451223 192.614 0.451223 193.343 0.451223L193.352 0.442688Z" fill="black"/>
<path d="M34.4201 12.3211H23.1744V50.6016H13.3773V12.5856C9.09154 12.4661 4.90011 12.3552 0.648682 12.2357V2.5504C0.914396 2.53334 1.16297 2.50774 1.41154 2.50774C21.0144 2.3968 40.6173 2.32854 60.2201 2.15787C64.3944 2.12374 67.4458 3.984 69.8716 7.056C73.6344 11.8347 73.7287 17.2533 70.283 22.672C68.4658 25.5307 66.1687 27.9883 63.5801 30.1813C63.2115 30.4885 62.8515 30.8043 62.3887 31.1968C66.7087 37.648 71.0115 44.0651 75.383 50.5931C75.023 50.6357 74.7744 50.6784 74.5344 50.6784C70.9258 50.6784 67.3258 50.6955 63.7173 50.6528C63.323 50.6528 62.783 50.3712 62.5601 50.0469C57.8973 43.2971 53.2773 36.5301 48.6487 29.7632C48.5973 29.6864 48.563 29.5925 48.4773 29.4219C48.7601 29.2 49.0515 28.9611 49.3515 28.7392C52.9944 26.0427 56.603 23.2949 59.603 19.8816C60.5373 18.8235 61.3515 17.5605 61.8744 16.2635C62.723 14.1472 61.0601 11.9883 58.7544 11.9883C54.443 11.9797 50.123 11.9883 45.8115 11.9883C45.5287 11.9883 45.2458 12.0139 44.8687 12.0395V50.6187H34.4201V12.3211Z" fill="black"/>
<path d="M77.2429 2.26031H87.3658C87.3658 4.02671 87.3572 5.74191 87.3658 7.45711C87.4429 16.7328 87.5201 26.0171 87.6144 35.2928C87.6486 38.4843 89.0886 40.6262 92.0801 41.6246C95.6201 42.8107 99.1943 42.7936 102.606 41.1723C103.643 40.6774 104.534 39.8155 105.349 38.9792C106.12 38.1856 106.394 37.1446 106.377 35.984C106.249 25.0102 106.163 14.0363 106.069 3.05391C106.069 2.80644 106.103 2.55897 106.12 2.22617C109.454 2.11524 112.746 2.0043 116.106 1.89337C116.131 2.32004 116.157 2.62724 116.157 2.94297C116.157 14.463 116.243 25.983 116.114 37.503C116.071 41.2491 114.126 44.3296 111.391 46.8555C108.683 49.3643 105.366 50.6187 101.783 51.1734C96.3486 52.0182 91.0429 51.4891 86.0372 49.151C81.7429 47.1456 78.9144 43.8774 77.9715 39.1499C77.8858 38.7147 77.8429 38.2624 77.8344 37.8187C77.6372 26.4608 77.4401 15.103 77.2429 3.7451C77.2429 3.26724 77.2429 2.7979 77.2429 2.25177V2.26031Z" fill="black"/>
</svg>
